<mxfile host="65bd71144e">
    <diagram id="kroa2Enb3uIKMZ7xdOIZ" name="第 1 页">
        <mxGraphModel dx="1053" dy="1831" grid="1" gridSize="10" guides="1" tooltips="1" connect="1" arrows="1" fold="1" page="1" pageScale="1" pageWidth="827" pageHeight="1169" math="0" shadow="0">
            <root>
                <mxCell id="0"/>
                <mxCell id="1" parent="0"/>
                <mxCell id="10" style="edgeStyle=none;html=1;entryX=-0.028;entryY=0.324;entryDx=0;entryDy=0;fontSize=18;entryPerimeter=0;exitX=1.022;exitY=0.338;exitDx=0;exitDy=0;exitPerimeter=0;endSize=14;" parent="1" source="2" target="4" edge="1">
                    <mxGeometry relative="1" as="geometry"/>
                </mxCell>
                <mxCell id="2" value="" style="rounded=0;whiteSpace=wrap;html=1;" parent="1" vertex="1">
                    <mxGeometry x="60" y="-280" width="120" height="820" as="geometry"/>
                </mxCell>
                <mxCell id="3" value="客户端" style="text;html=1;align=center;verticalAlign=middle;resizable=0;points=[];autosize=1;strokeColor=none;fillColor=none;" parent="1" vertex="1">
                    <mxGeometry x="90" y="-335" width="60" height="30" as="geometry"/>
                </mxCell>
                <mxCell id="13" style="edgeStyle=none;html=1;exitX=-0.035;exitY=0.595;exitDx=0;exitDy=0;entryX=1.003;entryY=0.624;entryDx=0;entryDy=0;entryPerimeter=0;fontSize=18;endSize=14;exitPerimeter=0;" parent="1" source="4" target="2" edge="1">
                    <mxGeometry relative="1" as="geometry"/>
                </mxCell>
                <mxCell id="4" value="" style="rounded=0;whiteSpace=wrap;html=1;" parent="1" vertex="1">
                    <mxGeometry x="990" y="-280" width="120" height="865" as="geometry"/>
                </mxCell>
                <mxCell id="5" value="服务端" style="text;html=1;align=center;verticalAlign=middle;resizable=0;points=[];autosize=1;strokeColor=none;fillColor=none;" parent="1" vertex="1">
                    <mxGeometry x="1020" y="-335" width="60" height="30" as="geometry"/>
                </mxCell>
                <mxCell id="15" value="insertEmp" style="text;html=1;align=center;verticalAlign=middle;resizable=0;points=[];autosize=1;strokeColor=none;fillColor=none;" parent="1" vertex="1">
                    <mxGeometry x="515" y="-320" width="80" height="30" as="geometry"/>
                </mxCell>
                <mxCell id="19" value="Emp" style="text;html=1;align=center;verticalAlign=middle;resizable=0;points=[];autosize=1;strokeColor=none;fillColor=none;fontSize=20;" parent="1" vertex="1">
                    <mxGeometry x="525" y="-360" width="60" height="40" as="geometry"/>
                </mxCell>
                <mxCell id="32" value="" style="shape=image;verticalLabelPosition=bottom;labelBackgroundColor=default;verticalAlign=top;aspect=fixed;imageAspect=0;image=data:image/png,iVBORw0KGgoAAAANSUhEUgAABAQAAAEpCAYAAAAEbfCgAAAgAElEQVR4nOzdX0vj3P4//Pe+2U8hImKZS9ky0OKBIzjUB9D2YDTTZzDgVCgefP3qSa7OfXhfXj1RPJGw6wjzDDqZCr/ak99ZRcERdncLg2AZKiLmQcx9kH8raZKmtVadvl8gzBiTlbWykmZ91p/+44+Zf/0CEREREREREY2V/+epT4CIiIiIiIiIRo8BASIiIiIiIqIxxIAAERERERER0RhiQICIiIiIiIhoDDEgAABYgXp2hWOlz90UDe3rAfZ7pgraFc7Vlac+jaelaGifHUB+6vMgIiIiIiJ6ZCMKCCg4vr5CW/hxNzyNBrm93dMgK2jufa0GuPf33u2RZTNYRA2HxQdm86EeqTEqq3W0tV6FomB5voWv+cqQU4+u+zydQI2s1n2v9bm6AmQPcO6zzSrL7n01FALOoZCMo1negOY5h+46G4EZMApLj4iIiIiI6KmMcISAjur2HGZm5zCzXQPSe0LDfg+ZuyNj2+wcDu9S2DcbhrJaRw7OtpnZObwzG+47snM8HS0cerZHVfiQAr5XhUZgREV5oPSeI1ldRaJxip2nPpEAWn7ZvP5HaAp1aSlfAcobWLLqTgPQT7aMv30rNOwbQv1qxJHzC7xkD/B+voW6fT0VHF/vIVbeQlXv73xltY529gabpdZDsk1ERERERPRonmbKQLmKCx2YeLViN8IOZadVvfOlBn0+iQKAxJT0yCfj1zPuHdEg9vB6t9WhZp09vb3RTq+yuZ/QA17QrF5sc9t6HJBS2Lf2F3vLPb3grlEQ3h5yaz/z9/tpCZhfCxidAQAryLwBql88kY2ANGW1jnP1wDjnswMUzDxbxy1oVzhWxHJ6Xj3kO6ctQJpGwvN7ObUAnHwWgiJFvBsw4KPll90BCSIiIiIiomfmaQIC2QwWJR0XtQrwehqSfoOmuL3cwT0kxLLAjnyEptmYfYz57bK6iglXIxCwGoJWj/LmiYT3dtritu6eY6cn2+jNvk9/NBvDRbybNfJyrABQNOQma9h8uwHNOmapBeg1bFr720ESBce70/gqHBfrTiO78CGF+5JzvvZ+Zs/55onu6iFf8k4LUD4ic/cN+bLrl6FpSukFdLaP0JRSyE19w+aJDmnKaWIn1lfR2XZ65N9HvXZC4KJ9vYfMI8SDCsk40DUaQkEurT/plAkiIiIiIqJRGmFAQEJm12zo7S7gYnvZ0wANYjXAt3DxZm/Ii/gpyKVhBCZc3Gsa7KclV2M3/JCa0KBdQ8IMbNh52a5hYv0K7XXgMGoPspJEAnHkAo7bvNWRWL+KsE6AnxWo2Tiap55u8B5pomEFEPTukQUA9JO/7eu7c9qKXn4NcXpI/0P1AwmBhhyOhGCL4blPmSAiIiIiIhq2p1lDYFYIBvy4ge4dvp2NYQI6Oq6AQQX5t0YveiI7pIX3lCQSDW/POCCrfyIDp6d+8yRqq1TB8XoczdKcMN/dh65DdwUKImi411EQy9AelXCa9F2UMVTYgoohab44Yl5kb2YDpkwQERERERH9xp7+awfLVVzo4pDyFahKyjOX2yG/GtYY8hWoWcm3EZiYkoC7jtl7ryCXjpimFcj4YZ6ruuqZp67geHcBF8VlLJV0ZBRPw90vOGL93ppqEKYoG0EIzzG0nzowGfMNEhQ+pHBf9hmpEDXNngJGIDwnvlMmIu9sr6XAryokIiIiIqKX5OkDAqgg//YI9+k9Z9743ZE5z93zdYTXV9h/c2nOu38g5SMyuETVpxFoLGpoDTFfReck4krx5Q18bThTI/anLoUh7wqOr9cwYQ2lL8rGtymIC+6VN/C1IQzTt6YAlDewVGoZ0wK6vprRW0ZrQEl2B1OKn1GFs1ihvRZD16r67rwEp9mbJFzPxe9bz/ibGMICFlbZGmsZWHmKFCSxpo6sxwFr6gWDBkRERERE9Iz844+Zf/166pMYvRWoZ3uIlR/6lYEKjq9X0Ym8HsLzUtCu8P52q3uRwWd63EehaMbXA/IbAYiIiIiIaMz886lP4GlUkH87hMaqkkQCOuovMBgAADvyHBfRK8qYebajF4iIiIiIiB7PmAYEHkDRzGHggLFQ4jIb1URERERERPTijOmUASIiIiIiIqLx9gwWFSQiIiIiIiKiUWNAgIiIiIiIiGgMMSBARERERERENIYYECAiIiIiIiIaQwwIEBEREREREY0hBgSIiIiIiIiIxhADAkRERERERERjiAEBIiIiIiIiojHEgAARERERERHRGGJAgIiIiIiIiGgMMSDwIqxAPbtC+/oK7es61KzPn2QPcH59hXN1ZXSn9dhpKhraZweQR53ub6KgBZSRoqF9fYVjZfTnNFTPLh8rUM80FHr+jc85KxrrMxERERGN3GgDAuYL/HN58ZXVOtras2lNhKgg/3YOM7NHaI40XQXHQQGIESgk42iWN6A9TfIPFxTQeKBo9VbB8nwLX/OVIaf+8g3/vjca+edqAri7AdR68HXPZrCIGg6L5v8VDe1rI4hw/zOB4+cQ4DADbqEByAAFzdrvqruMzee/lV8iIiIienr/HGVihaSEaqmGxWwGMiovt6H3HJU3sFT+jdLMHuD9fAtf/VpVT5HXF0ZWV5FofMM7v41FGTNFvw0vzLPJRwX5txXIah378xL02y3MvPUPxBQ+pIDvW86zryhjpqjg+HoNCQCHs3PYGdVp+1JwvLuAi+055MswggO7Ggplued5yWodORxhZta4KMYIlSaW8mbZvLnEZgnYX3/0TBARERFRRCMcIaBgefIS1WIVF1hAxtvrZPceXXUPA3b1WHlGGHi2OfspOL7WUBCPa/VYmfvspyVgfs3/uNYw/T57eGW17sqHeMyCdoVjRcGxvd3pKZPVOs5VpffUAB9ir5xv72Jg2Yrn4j4f45hrSEBCZjdoe1Ca4hQHdxka+TzwLQNXOaYWgJPPQiPEc8yudL3b3cd19VyK27IHOD87gNqrDPtilut6HJBS2PfrMQ2qt13D4I1jnasrEeutURaZN0D1i9ha9l5rT/3ynI9zzZTuXuvsAc4D6kKveze419izr3ldCsL95OQzbArNQ+/7QRjn8wnfUG3U8BV/BtRrn1Ebiob2dRL1UgvN0imWfc7HeKb0P1LHe12i5NMKJOXNgJucWoCEOJZ73hMKcmmxzilYngekNxnIALT8MmbevuDRPkRERES/qdEFBJQkJr5XoaGC6ndgMSW8nCoa2usSqttzmJk1ft5Z75XZA5zvpnBfcrYt2S/UCo53p/F11tp2BKyLL+Jx5LI32DS3NedXjZfq8gaWZueweaIDjSOf4w5Oyy/bx5uZPcJ9+qOrYZBYX0XHzOdhI473wku6lF5DrGxs2zwBMh+itUx35DnMzG6hqvtsDCtbFPFu1vn95olkn49xzCM0oQv7Or2EwWmuQD3bw+L3Lfu4h3cp7AsNQSmdAkr+ZWCeNHJp3TPc3Zo2Ye3n3eUjMndHQtk751rQrsyeSyefOTHQI6WQsbaXWkhkHzrM3yzXUgvQa2b9m8OM7DSWAuttUTbOwfx/QVvDxMmWUTej1lvlIzJ3TqPOdU6zAdfNPLZ4zXKKsd/hiY5E0rl+cmoBUuPUUxfMn+0aJoTyK3xw37tOGaBH3QQgpfAef9vHhX0v9ZpCM+r73jifpXwTmJwG8suu+meXm7qKCVeQC8b1Nv924lUT74b0HPLWefF+8QYKxABQYkqCftu0/25/6hsOG8DEqx7BhGwME9DRsUYVXK+iU6pBl6aReHBuiIiIiOixjCggsAI1G8f9T+NFV6tdAmbPEWDMFddP/vY0YAxG4+PI3VCwKEkkEEfOfrE1erRjdk+ajmrR6pUqot6QEHsd9ZzNRke/vVquHk/v+cCVz53TFqQp4XVZyKdWu4Q+GXvw/POwsvX2qu+nJff5DCSBmOTuBd05bQFiXoR8Nm/1rjSNXsrT/oZO/7iBPr/m0zO7gtik7uot12qXnoZKC4dWQ/XHzeM3YnrV26JsBC2ujUZdfw1E415rnvY7lt49giA37zQCtfw3NOeTZrl2jz5wjYrZTUESyq95qyOx7jMyAL3qJgAI9ai8gSWfRra/h9z3D1FB/m3QORo96Be1gGtZlAOvsxFkXA4pp+60lud1zwgRhyuAY/24nnMJqGdXeH+75Q7gREpaQ3t3Gl9nl5H/0d+uRERERDR6owkIZDNYlGA0DOxGg8+0gUE0jjwvt/28OA+bguP1OJolp+d3tIsA9kdW/0QGTg/25onfEINR8xvuHoHdw20Mux5kiPVIRai3uq67AylReBeti6igrSHR8O9RNhrV5rDxbAaLuETVOtfsAT6l4fTyb9cg1iJ7xMxpsmv6yFhRkq6h+E8pbIRA81a3RyoZAYoVxCZhB3MDlTu4t0dmmEGR19OQ9Jtn/QwkIiIiGncjCQhYvfxiA2jzxJk2sHPaguQZWm/RapfQrSG/XmavcKQ53+YidXWhoaT9DGtwDbCGgDVs1uwZk9XVkJ7m8J5cY/Gx6oPn3IaVbWJKAu46ZhoKcmnJ8xdNdPR+e1eb6OjiNAAjn3rUvPgOd++HMTT+0O4VrqBzJ7mmXxQ+pFxD3nuf04DfjhE02qBXvVU07L+5xF9vl3F4l8InT7ph9bbwIYX7vr+ZwWj0WUPFjXvF/Rc7X2qYSCqQUwvu47+ehmQNFTfT99YiAObQ+CM0hfIIq5tDM+h9P9SV8FegZqX+g1yWvr9e0bhvreerrNaRE65n2AgBrXYJHUJ5KR+Rkdzl538/FFFvQLjP+7zviYiIiOhJjCAgsILMG6mr4av91J3GgDBEumtxsfIGlkq6sLCd8CJa3sBSqeWMPOjqgRQWxNtdwMW2Zzhv8TOqcBZ9e/DiYuUNfG04ae5PXXbN1ZbSe+a5GvPsXVMhhIXO3EPFreHc4iJ/Vg+41YDZQ0YYhWGXX0jZ7nypmcPsr9C+XkXnpOXJUAX5sli+mj1sPDjNCvJvj3Av5DNzF3XY+6DD3bsXc8zBmZawI2+hOimU7WQNm/0Mhf5xAx3ofzpFeQNfG8LUAGvYfFi9tebVm0Ped2SzLMUh90H11qfxG41xne26uTuNC+9okXIVF5Nr2H9z6R59UPyMqu7k8f1tTegR9i70uAaUhHsw7L4PFXY/AA+77yvo3BnHiA1rhInyERlxVEW/zPonruMQroJ8sQaY13P/zSWq3jU3gpQ3sFSCc03WgcOIUzV25C1cvHE/3+z73ppKtR4HrOky4zpahIiIiOgZ+ccfM//69dQn8TgUHF+vorP9lFMI3AqaMS/Xr3Esq3XsT33rf87u70TR0M7eYLPnug3GwoWx8pz/2hJD5yyUOIwF3x5LWP1ye373xvAMIW+K1ldDONww6qrxtYQoDX6M6HWDiIiIiMbJP5/6BIhsUb9XPpvBoqTjYgSLlslqHftpCfrJ829M7cgRv8NeSSIBHfXfLhjwUEbDO4HWkIIBgDFiZvB646p/YxwrJCIiIqLHwYAAvQzm109a89ObpbmR9G5r+eXfYw60opnDtQFAR3V7eUgN3t9JEe9mn1er+7epf0RERET0LP3GUwaIiIiIiIiIKMhovnaQiIiIiIiIiJ4VBgSIiIiIiIiIxhADAkRERERERERjiAEBIiIiIiIiojHEgAARERERERHRGGJAgIiIiIiIiGgMMSBARERERERENIYYECAiIiIiIiIaQwwIEBEREREREY0hBgSIiIiIiIiIxhADAi9R9gDn1xoKXb+7wrm68lRnNTyKhvb1FY6VJ0jbr2x7Mc/X+DH3Na9H+/oK7bMDyI9ztkNT0H6TukNERERERJGNNiBgNpyeS8NDVutoa/22Olegnl0JDcCX0eCjx6LgeF1CdXsOM7NzmJmVsQMA5Q0szc5hptQa4JhGHXuSgAgREREREY2Nf44ysUJSQrVUw2I2AxkVaKNMfMiapTm8Kz71WQjKG1gqP/VJDElRxsxzKtsw2RgmoKP+u5Q9ERERERGNjRGOEFCwPHmJarGKCywgk/Vu1ly97q7eUXH4tXeEgWebs5+C42sNBfG41mgAc5/9tATMr/kfd8A8Hl9rUNV68DFD8lnQrrqHnvvlczcFCf77eXuVC9oVjtXg4evuNK/Qvq5DFa6NrNa7ftebzygKKz+e/LvLSNzPm2bI9XyokLI10vU5V2uf3RQkxJHrsw55y926bkZ57yEjAYl1/7Jw7TvE0Sn3PxNCXoX6lz3A+dkBCmH1moiIiIiIXpzRBQSUJCa+V6Ghgup3YDElNCgUDW3XsGuh9z17gPPdFO5LzralfMXaEce70/g6a207AtbFhnQcuewNNs1tzflVo2FlDufePNGBxpHPcXtzGmveRlkcmTeXRprbNSD90TmfkHwWtCvk4JzL5omEnHXc7AHOdxdwYe23XYMunMuOPIeZ2S1UxV+K55q29t1CFSnkhMZnbrJmlo+xf7O0jPwDe7sL2h4yd0f2NWlCR3XbHEpflO08zmzXoDeOhHKvIP/W2sdPwPV8iNCyXYF6toqOfb22cPHmT1cdMv6+hcM+65BxzZw0J7LGtdbyy8K1sP7GuSayWsf72y2nnnxfwKchNc4T605eDxtxvBePK6XwHn/b5+uq10RERERE9CKNaMrACtRsHPdlo7Gk1S7xSXGmDRSScegnW74NUTm1AKlxhCW/IeRKEgnEkbi+Qs7+pY5OFkDZ+He1uGFOTSii3ljD8uuI53tm9NIaWji05oabgqcMCGmWO7jfXUDMPJ/gfK4gNqmjWnQOqNUu8Sk9jQQApBYgNb4N3FDXT/42962gc7eHxVcrAPwbrhOebVp+eQhTOyTEuspdwbEC/PW2n7kBg17PYHJY2WYzWJQkSLtXaO86v24+ME3AaNjvp8WxCC0kgB5lvYLMGwmStIf29Z7z60YCQdezH049AXZOW8glxeO28NUKdvxO01OIiIiIiMbYaAIC2QwWJUBav0J73fqljkwW0B7asGgcYUYe9oTzCvJvH97Aeu6MoEMK+9dX2AeMsuxjlESQndMWcutraF+vAQD0ky1PQMfseS8OI9jwyPQaNt9uDPc8swf4lAaq23NGAzx7gPPd6agnhOr2w0dxEBERERERjWTKgNXLbw+Rnp3D5okzbWDntAUpYAiyVruEHjQ0/McN9Pm1aKuxZw/wfr6FutAw1X7qwGRsZN8QEJzPCjp3EjIfnIwUPqQgNU6xY53nfNLcT8Fx1zz3wRQ+uKdi+AVW+l9DYAVq1j0twjuMXlb/RKz8wEatz/W05/v3Ma8+tGzLHdxLqaENybe9noYEHR0z/4UP3utZQefOGq3h/b2EjBKWP2sdhj6/OtF7jGwczdOXsrIjERERERENYgQBAWOYs7dxof3UncZxUTbmzPsttlfewFJJR2bXZ2G38gaWSq2Q+fySs9/uAi623cP+UfyMKowe8n4XSgtOM0RIPnfkLVQnnQUOc5M1bFoN9KKMw4a1cN0qOtviHHurAeheiC5KkGTnSw0TYj6GslBfBfmy+3q5ylbRsJ+W3OVnp2kt4LeGhH3txGBEj+uJJjo6AMmcahFFaNkW8W67BqT3ghd7DGItfrgeBySzjln1pPgZVd1ZiPD9ba1rzYSdL2K6ThnsyFuuOtt9rY1gAiAZU1X6INnp7WHx+9bz+hYNIiIiIiIaun/8MfOvX099Eo9DwfH1KjocXh2ooF3h/e2W04NvL7D3kDIz1l+IlYU1FhQN7XV0rcPQn2jXU1br2H9zOfxh/i/JUMqbiIiIiIh+dyP82kF6XlYQm/T8yjOUfTAJxDzzGeRXEqDfBHxzwJBYXyU51sEAc4QFgwFERERERBTBiL5lgJ6fCvLFDM53xRXrjQXrHtaQLOJdKYm2awHJFg5nH7mRzpXvARTxbpbj/ImIiIiIKJrfeMoAEREREREREQXhlAEiIiIiIiKiMcSAABEREREREdEYYkCAiIiIiIiIaAwxIEBEREREREQ0hhgQICIiIiIiIhpDDAgQERERERERjSEGBIiIiIiIiIjGEAMCRERERERERGOIAQEiIiIiIiKiMcSAABEREREREdEYYkCARkpW62hrylOfRkQKjq/rULNPfR5ERERERETDN9qAgKKhfX2Fc3VlpMkGGbRxWtCeTx7GTUG7Qvva+TlWAKPhfoX22QFk6w8Vzf3/F8XMjyuPUaxAPRPK58UEXvzJat3JSz/X0nzOPKtyCDgnVx6vr9C+1lAYwekMVLbePPRdP4fNJ2Dnue/9nxePa+B6C7jL+MU+v4iIiOglGWlAoJCUUC3VgDcZvuhQn4zGbm6yhs3ZOcyYP++K1nYdOlLIPYO238OsQD1bA0pWHo+A9WijFAraHjJ3R3bZHGLt5QauFA37by7ta735fQH7kRr2Co7XgUO7jmyhOrn6pKM8ZLWOtuuc5jAjF50/aAjXrBHH+8e+ZoOWbVF2zt+sm03o6Px43NMdlKzWkcOR65zfFXvv9yAD11ufevJ2A9ojny4RERHRCAMCCpYnL1EtVnGBBWS8L+ie3idXT072AOfCNlcjx7PN2U/B8bWGgnhc68XM3Gc/LQHza/7HHZC3x088ZkG7wrEqnK+nB8jbm9W2er+yBzgXew49/w9Ls6vX2NML6d63u3fS2N7fsPnuXk9vz1xMOKeIPaLZDBalFg5DXpIvyjVMJPuNCLh743175lJaSB0x9/d56e8qhygNA+UjMqjh0Gq4KEkkIGEx1aturiA2qaP6xWnx7Jy2IE0leqdpctU/oQxktY5z9UAop37qibd8o9SlFajZOJpl61qvIPNGAuaTEepKEx09jpxV1spHZCQdnXLPHYV8+OQze4DzswOoWlCdDqIgl5bQLMnYiXYKuP9Z8Tmn51C2brK6ikTjG/JPVrbhElNSxHN6DmW7gswboLodvZ4QERERDcPoAgJKEhPfq9BQQfU73A0cRUN7XUJ126cnJ3uA890U7kvOtqW89cKs4Hh3Gl9nxd5UsbESRy57Y/bWHKE5b/YUljewNDuHzRPd1TvnHHdwWn7Z1YN2n/7oehlMpBdwsW32XAo92rJaF3q/t1DVgWZpOdLLdlia7l5jo0fPfulUNOxPfXP2LcFpSA2rDEot6Cdb7p65+RRi5T57RF9PQ9Jv0Az7mx9VXPTdG1zEO7E3WfcGHSRk3ph1aLsGeK5nEFmtu3sKT3Rno+/Qa6PBIb+SgLsONPMY7ewNDk/0CA37Cjp3YuDAaJxgMhZpNI6s1vH+dsu+bpvfF/BJuC5SOmWPWojei63g+No92sG5fn6BKitokkBMsnqeFRxf7yFWPkITEmI9r20F+bfG6Ij29RXa2RtszkZsZPW6H6QUMlaPc6mFRDbCkO5sDBNooV608uITdBKCkjkcRezFfoqydaefS8MVgAr/80co2x525CM0zbLtL9j7BGWbzWBR0oFU3XNMIiIiosf1z9EkYzRO7stGg1urXeKTkoGMCjQAhWQc+smWb+NXTi1Aahxhye+9U0kigTgS11fI2b/U0ckCKBv/rhatxl0R9cYall9HPN+zPWTsDqYWDvtoVLTX48IvxPMB9JO/zXxW0Lnbw+KrFQD+gYiJkG39pOkmIWaWQSEZB+bjaF+vCbveQAbsBrGWXx582Gr2AOfJUyzJnjw0nEZP81ZHbioBK5+yWjdGbpiaJSM4JL+SANz0SLCCfPkj2h8U4LT/0y1ofwLFZc91FupQuYP73QXj5d4u2yLezXorp9Ez6PQUehRlzAS0o+SUdS5G43DmbRGyWo90/jvyEZav99C+3jPO+6QFTHUiXD/jfCXJ2tfUcK5L2DUDAuqJkkRCr2HTN68V5N8G1W2zIfT6AOfXRgAtXzamAvRm3rt3R5iZLaKgXWH/WkMiwv3b+35o4dAa6v/jBro0jYS1zXMP6idbPgFGs64oGtpiA7FxZE8hKGhXaGtwTSl4PmXrsEYHvIs4OuDxy9aPdW8adaJ9vWc/TyzPq2zjWMQWZmYr9jkfK8XHn+ZAREREY200AYFsBosSIK1foW2/HOnIZAEt4gtlIOFlenjCXvrCKDhejwsvnQqOr1cj7anVLvEpncL+9RX2ASNfkV56w9PcOW0ht75mv4jrJ1uu4Ir3BXl4rNEbG33tFRSA0H7q2E8LjYQgxc+onkXrxRcZPeR/Y+mh9TGKrgAOAOiobi8j/1PHfnoN70+27OufmJKg34aOjTC5gxOyWsdipP2E9EeRfwDdQTdT4wgzchMdfQ2Z9WkczpoBmmwME9BR73V+9tQSoxx25C3EzvawrACIUM8Hvh+Cgjy+QaRgO6ct5LIxV1Cuf49UtpbsAT6lgep2fwU19LINcucNgpnPc0VDO3sAufiQufmPWbYtfLWf+b0DxkRERETDMJIpA1Yvv7i40+aJM21g57QFKWAotla7hD4fMAz8xw30+bVo802zB3g/bw3dNY/9U488pDoS8+XPWmRLVlcRdQZ34YN7WkR3kMMadroCVUnBfh8NTXMFatY9FUPsWWve6kish8/hH2QNAQAoaKvoDHM+bPEzquLc8EAVVL9LeJ/1vrFbQ3198ps9wKepbwNOGTGP61p3oILOHZCw1jNQNNeoh+7F2eYwM2s2xounaELHRa1in9v7eeH/xgG7v1XBS9Gwn9aFBobBmsftvmeM6QYZ5QHDtM1pEK7j/riBLlnrhRiLJTp10xja31UOchHGNdSBxqldfwofUpCE/wfnBYBriHYCsa6p5P7lF+V+6F8R9Ub0si0k490N2mdVttbfB60dMMqybaKjd0+TCQqeGaOMvKf7TMq2XMWFHjcCV8aJYbnrviciIiIavhEEBMzh06fuBq72U3eCAEUZmycScn6L0JU3sFTSkdn1WTSvvIGlUguJ9aAF4SRnv90FXHgbqMXPqMLole93nqmU3utecKq8ga8NJ839qUtU9Z6HAgDsfKlhYt1vXqr3uNa8VPhs86ZZQb7sLjsxn2i6Y8oAACAASURBVFp+GYeNuKvch7WwYm5e8r9mA6sg/3YL1ck1V178Gixa/hvuJe/Lv9FIR9d8XgXHuylI8+Jx+2m4mMeV3AtlivOX2+tA9SRiRUAR77YvseiqtxF77sW1CQLmzms/jfMwpqOI57vluhf6Xtjtxw10CEEQAChv4K8T2PV28XstfA0I8Tzzy846AObc+kgjgbqeF2uY8K5hgSY6OgBzWLorzUe4H3bkORzeCWW77mn0z/fI53MpW8AOUAWvHTDKsq0g//YI9/az2JgqYgT2uuf677+5xKZ3UdJnU7YV5IviZ8AaEHENGSIiIqKH+McfM//69dQn8TiMofOdkQ6DHlxBu8L7W2FubPYA5/00Bn0Zw1tjZWGorqKZX201hqtZP1Le7QUEQ74BQVbrxqJqQ5/e0i9nwbThThWJctznc09GuWbPB8v28byssiUiIiIathF+7SAFW0Fs0vOr19OQEP3r0vx1D5eWX0lAr9X6fzvmMOahBwOM4+6n9dCvQ3wujK8VHH4wwBgC7dcT/wxZXzn6QhqsLNvH86LKloiIiOiRjOhbBihcBfliBue74irvxiJvD2u8FvGulETbtZhjC4ezz/9lfbj8vgngOR/3cezIc48yKuRB30QxauWN0SwcOSQs28fzosqWiIiI6JH8xlMGiIiIiIiIiCgIpwwQERERERERjSEGBIiIiIiIiIjGEAMCRERERERERGOIAQEiIiIiIiKiMcSAABEREREREdEYYkCAiIiIiIiIaAwxIEBEREREREQ0hhgQICIiIiIiIhpDDAgQERERERERjSEGBIiIiIiIiIjGEAMCIySrdbQ15alP4ze2AvXsCu2zA8j97qpoaF9f4fhFXJ4H5HMAofU2e4Dzaw2FR0q7oF2hPcjxswc4v77CubryGKf1fPwO+eyrDik4vq5DzQ4p7YHv+9Heg0/p2dyDj/ysAR6QV6b5NMz71/gZUX6eIs0XYcjP5hfqSd7zxTo5UNrm55l5jBf9PkEDG21AwKy0L7myGR+k3T8voyE5PN5y8F5T1/aID6iC5n3BVnDsPfaAdch9vtE/xMPyWdDE/5sPVE0xz9GbhrHd+Xsjb751x3yR7v/h3OsD2f3Qb4t/63rJGW5Dx1uGQ7lXPOcb+Zgh+ZTVetd9bZV994e8UZZR0vV7Zrj2s8/JXWes83H+Nnqa4dfTUw9G8fLiqdNDeZFWNJ96ugL1zKnXg973g96DYXWoZ17E+9HVmHaeFcHHtK5pf+Xas24OnfcZJNbBoOf9wxsZo8+nec3E+ulbX4efZtdn0jDSdN0P4vUYPE3jXhHqa1dwzqkr/veQguN1CdXtOczMzmFmVsaOuWXg+9713PSrd0Fp9vrs9fu8974TdJdL9/MkWl66ylZ8P3mwx2j4h30m+TwzPPXL/x2j+7npHDvgOeQ5rqv8rXPyfrYOVBY+z4fQP/em6alLRRkzs3PYPNH99/d+/nbl809k7o7MOj2HpXyl3wz5cJex93nrV7bud2rh3B/8DPOpC3Yd61G/vGXvvYcC3t+69436HPL5LBeD4d7AuP0Z2ft50stIAwKFpIRqqQa8ybzYXpUd2fwg2K5BRwuH5g30rvjUZzZadjn4PIRktY4cnIfLIdYivRTvyFuoIoVP5t8WtDUkGkeuh1N4Haog/3YOM283oHnPZ7KGTft8JeS8Dxjzgeq9jmH5dOfZfKDKRaB4iibiWBafG9kMFqUWvuYr5g29is72EZpdR1JwvJvCfcmpZ0jveR6m/vkMp+D4es/10J+ZXUa+7M6/U7eHwXhAiXWh33vFKH/nRQ+AUX7iS9l2DRPrng/l8gaW/D7YQvKp5Zed69w4GtoHo1WHDhuAfrLlKgNZraOdvcFmqeW/s65jIhvyYThAPguaux5EvT8fxDxPI02/ej983vv+sBGPeN977sHZI9xHvAcfUof0ho5YygxApaZx3xCvmi40QozzcV2zbAaLd0c4bHieOz2E1U3333juwSh866ZZbq660MKhXARQxLvtGpD+07yXFRyvx9EsCc+pAUXJp/N3A+TVlw4dKeR6XI+hpqm3cD9lfjZmM4jdtXyf5f2luQJVWcDFtvU5CGQU4T6KmKafZgN2fS0kjf8bjM+rWHkL1aCDZWOYgI6Op25Euu99j+f9XLnE4q7nRTogzZ7H9f28ryBfFOs7ACjIpYHqtnBtGsKzuhHH+wjPai2/bOTbbLzI6p/IoIZN+Xm+qEb5TGqWhOeG/dwNe8co4t3snOv3hw1Av22i+zlkPrPvOvbzvKBdYf/NpV2PZsSy0536NVPSkdntJyiwAvVsDWgEfOb7ET/P7eemjs6PCPsqGtq7zv3rLj9DYkoyy2VYjPt38fuW73tfaNk+GvEztDtN//oFT9kfoTm/al/r8Pc3BcfrsNuI4v0Y6Wx1KcK9bgUol5EvR3yehBhhQEDB8uQlqsUqLrCAjPfmCevxC+ut8WwL2y886jikoV9Re5asvwvsofREh84OoGoB+QQGHvoalGZB85aXEWHrfXyzAn4p2v9fngckoQEfmE/7A3IPx5qG3Lz1ougcO7AOBQ6ZMs+n6NzgWv4bmpK1v1gPBox6K5rxcLPPtYh6A0gknfOQUwuQGqfGTVnewNKs/0uurK4ioddwaB2qvIG/TnTnWIMODVOSSOgPeSGICeXkuVf0G0C4pnadVz4iI3mvofe8Au578T7y9gZ8SAEnfzvlV97A14aExZQVSBpVL6DFr7ch2vNEyy+HB3buvuHrnc/zEoPmcwWxSV24P4Gd0xakqUTE/d2RdvtaZw9w7rl/ZLXeV+9kTKhD7vyIaa7BPtMfNwENDx2dsoJcWkKz7JTtjnwU6b6X1VUkGkfCC0wRh0O4B43nXvcogGMFkF9JwO0pOlMZyFhBZuoG9dugIxXxrtRyP1NTC7g/LWLntOV67nR/Lvj0wgcJvAfdozBcaQk9PVHqZkFbA0rCy0p5A3+dAJldDcdmQNjbcPerJwUtYKRVlPrXa3RU0DMqQtlelGuYSPoUQJ9pWvda9z0l9AplY5jADeq308hkjaBS5/Qmepre55i9vYL8W+fzSqtdQpemjfuw3zSF8klMScDpKZA0Rocs4xR1e0ejMecbPLbq5W4KEuLIuY7b674P8XoaUuOb8LlSxYUuIZbtlWYPIZ/3dn03AyzGs+dbaADs/qfQQRIy+m5HPkJzfg3nmoZPrncg83kqPLvE0ZmyWse5qvg+H4301pCAhMyu32edjs7r4Oej63zt+vWAz6Qo7xiW7AHez5udMt0H8nlvbeEwSqdLUcah8P7hTbP7Pd/oPHp32vuUg0SpJ4YVqNk4dPF9SWBdj9w8IKX3fNsBx4r4+evZpgZ8RijJrs48R3DZNm8Don9CoMafguNrDao9qtI65yFP6fEEBMPf34p4JwRdd05bwGQseKSm51zvy99wH9p5bgaWxID5AM8T0egCAkoSE9+r0FBB9TvcN4+ioe0ahiV8EGQPcO7qrRF7HBQc707jqxC9wbpQYT+493NFhJSPnt7SIUToswc4d0Xi/HqWPH9nVSZFw/7UN+d8SnBHk6QUMlYUtNRCIqzXMKqQNHe+1KDPJ4VhKUl3QzWwDIQbxoqMl2rOC0SvfFoN4Pk4miXPNQmrQ0FDpnwj+k10dAmx14ATKR601zJjRAE9D4Wd0xZgl98KMm8kNE97f2glpqSuh5/2U3ceJL2GhgWQX3Ufty/zKcTKAb0UUgo565pu14D0R2O44ysJsIIgwouhEzAIue+tHuWuyOsKYpPulyLA+CCxXiCM3q+QnqWhc/c2HDb0yBHZKHZOdWQ+dDcqBstnBZ078eXFeGFwf1AFWYF6toqOfb22cPHGjEZ7gjJ2nS9HHcUSR8aqQ67nm4Lj6zVA6K133afmc8UZaphATIJz37t6UKLd9369JcO4B7X8stC7ugJVMT6fnEZPE9XbaWSUDGK3Vez81INfin/cOM9UrCDzRke9CGN0kvjcLspGeZqfiwVtDRMnW9FGLQTeg0Ydir2Gq9Etv3LKLVLdVDTk0N3g1/J/o6rHkegKCANB9aR5q2PilTW9wnwHeD0NKcozL2x0lKKhLfTyuEYjRSnbH1VcTK52B0/C0vT0VFujTZbyFU8wG+6RZ6Zm7QaxlILM1A2qxQ7urXoSOgpsBeqZZwRZwIuuK7jdb5pdjYQi6kiioCSB06JwHUNY9dIzSnMpX4lw34f4ceN55/mIjGTuF5bmA2n5v1FFCjn1AJ/Senedn1+zPzu994s4gnFmu+YZTWYGDufj7gA6ing3awQLjhUY9+FkDZvC9ZbSa/bn/eYJ7M8fIz2jd9pvqgYQRy57Y/b8dvemvr91eow3vy+Yo0GjfSYl1ruDCT3fMQRGR8Jn38/lroaTkkRCv0FMCGCEBX/E9w+b33t+NuAa98UbvAiTQEzScVGrwN0ANZ5ZfiOnvG2hxHoS9YARKom01d4xRvdao6EKyTj025gQSBCnp4aXrVGOwrSU19OQIpWL8dmweaIjsW6NyDEDesaRhSBWd0BbrF/eNpsdyNpN4d7bLomokIxD/151nqk926BF1O+CR5jF1D+x+H3L//Mz7HkSYkQBAeMGt17itdqla8h3IRkcwTI+fLpfGgAYFUuI1lqRS6sCNG914yL79eL8uIE+vxYQQRpw9IA3wmz2FLs+4ObX0N6dxldPxLiQjLse/O117wNReDlyvQxaSfkPeQ8TmmZ5A1+F4aeFZLyPl3uYw5TMfAofzr3zaTaK4Sm3HnXoqUjpFHxf2cVpA+ZLW/0JR+tZZTow4R7s/vAT6qbYqyIy6+dhw/lV2H3/UslqHcunDx/i7FL8jKpfo2JAO7IRqDTuwT+B761owaJsBouS+KG657wwwwgi2vdkNoNFRAgg2gKeb2GByHIH9wCAFcRuWz2i6c+Dll/G4V0K++Zwyu4P81PE1qdR76ehoXxEBjdmYKOIunfaQFE2pkmZDYphNGLshttr4P7O6B1OTEldgbqQkzYCqb4vK2ZQBz7PkYB6olnBk2wMHXMYuhigGJT8SoIuNiKs55vVuOxZthXky/4Bvb7Yn5FFHJ44wXA5tdDdyClvoD61hthpH5/X5mdUz5dHRcO+30tmzzQVHCvAXz7H3/lyg/fZmz6eFY+kvIG/zGvZvr5CO3mDqh5xWPaDVJAvt5BIBzRYG+6h9OL7rGu05W4Kkue9UH5lfO53BxaN6TkT61dGwMsb/BE+77XaJfRIAWMA0IWRCEXUG9a9YgSInV7oK+ynJSGI3/szKXBIt52l7ncMW1+jA0xSCrFTsXPvz+ifwb7v+dbUm4d1FvTb6+swg+B9TgkVn387sjsI5ry/VdC5c7+zS+lpO5AwU9Ld04wCylb7aZ5ZNoZOQ/cZdeFZC8A1ykkYZdJVPu7pI5vmKLSCWC72ubaQ8ExBdQJvR8D6YCOxc5M1/OUKFoe1Qc10v3iDfJY4Mumgd/oez5MQowkIZDNYlIQIzG4KUpQhXFE03HOHxHnR1nzOmdNkd+Wx57SeYrkrYuSdXzS83j40jvznsMPzwAuJ0A9TWJo7p1YPjDHEJ1KDttzBvR0lNsvt9TQk/cbuiQvNp2JOFSi1IIkP4EHrULmD+64XSyNqOowPev1kK+B6OsOM/XpUgjRv9a4AyYN79wOO+9hcvapD0/3BAzzGHLgoPHXIHP0y/PVEjEbFYirqsP5exA/HZVTRR9mJcye7RnVUcWH2EsipBUCMhj+mbAYxfEbdmlqh36Bp3feuXsFo971fb88w7kGRrrvTcBrT7mGGgYRnaiEZB6QU9q1exHn3dCUxzWHdj9aLWyE5jfoXo3c4Nhn9mSqrq+6pAgJr7ZjDhuR+iQxjTh+RU9PAF2MYen8BiocJLdviZ1Qnk9GHrppBByvwtp/WXQ02rXZpjsJaQeYNzN4/uEZE7MiPsK6RPVpCuG6R0jRHFhXF95kVp76UN7A0rHedB9z3gPDOODuHGblj7DeKgHXxFE3ozrUM4Bp2nD0wpgIIa+l4R5p8SgPVUg26NRrAS9eh+wbeHoNnDrdr1O5gn0nR3jGM0VhBjSPjeePTwHYFosNHmXS9f/i955sjTuyA+rrz3I7cwLSuaaTRAb3P+zG5AqneTsweZWs9x60gv1O2nnUhBnxuaLXL4KBI8TRktLDxXt9zFJNAVuvGlGLvuYa2QZ2/+Xq3gEzX9WvhMGgEup2H3s8Tr5EEBKxefvcCHk6Ue+e0BckcZuyl1S6hzwf0jpkRlp43U1E2hi95e9WNjXg3O4fDxhBumh837nPNHuD9fPdFsXuJhEivMZrhAfNdBlhDoGeaxc+oYgE5bRUTrofpClTVWaEz80Z88TJGRThDY8w5TOb/w9O0FpGSsWPOy7LnwvSoQ8GMKLXYQxP4AdAlLJ8Ov+sJOHX3U8TpAvY+kjBMqO8PgIDj5r+hKTkLNnrJ6oF9TeTUQrShtn6Uj8jgEtUyjIdSSJph932Yrv3MIJJ/9N9t0HxqP3VhCgjMD3fxZVHBcfbm8RZtKp7iPr2KxYh/HjmfZo+ft+y6v+EAxst2yPW0I9NJDTnvMZWDriGDkUIQP26gu+b9C2sImC8Syx+m0alVsHOqY/FDEhMA7HU8hOh61Pu+6zNnSPcg4Cy4uvT2b1QnI3x2+cke4HzdGrGlYHne+6J95J42YK5x8tdb4zkVfP368OMGmPqIZZxip9wB3iQRi7rYWvYAn95c+vcIK87aMcbc74jnW+7gfjKJ3NQNquUmOpNJLEdddCuE9lP3PGuMOct2cDxS2VZQ/S7hfTbiKK1eQ0mt0XvaR2TuBukp9FGu4kIPXrBOVuvdwYCIZPVPxMpDHjUVKNp97/t8czGeNRN99rA9tkIy7gQmX09DEu65woeUMLTaagT/jXzRnIbpeu9ScLy7gIviMpa8vbfeND+kPMHdiI1Ms1feuFeMaQGRAnwBn0m+erxjGMcz7lnf45nv6F3P9uKp79Qcv04xWa37vn90vRd6FwYstewAe9TgXeFDyjMKuZcKqt8f2LYYwM5p9xo3dqdYWNn+uIFuP8eLqN8tIJd84OhWH0Y5+nfSGet4me+wXYw1SqIGmu3FE0MDF+Ft0J1THZnsgv9+fgtqP8QfM//69bg///vr/9z/+vXff3t+/+/mr1+/mr9K5v//p3r/S+T6+383Xdvuq/8buO3X/cmv/xHSDTqmN71f//ncX762Tn7dC+cfdD5dadrpWOfnHKP0H09WrHx60/JL20y3q5x7/ASm6Sqn+1//Zyskn11l5y577zH90zT3cR3r86///vr169d//m/POtR1PV3n5akLdh0R0nCfkZPfkHyW/iPmzUzDdezua9x3mr961FvXefkcNzSv4nUVt7nP111vPf/fOvnlPqPeeQ3Lj73Ne1978uLeT8xH933vTrNHPr1JCnW3vzSd7d76HjWfvuVu7zt4Pl1puupHd1l03XNRr3foM8HzPOnxfBPL/b///t9f/+fe2t97z3nTHtJ9/yv6PRhWh4xt3nwa20v/CXi+3Z/8+p+w+9b+m+6yvq/+r5kPn/vcPN9B66Z47vZxQj57neP6b/t1f/Lrf8xj+n32//ffveqJO1/esg7Np7d+e8oz8L4PLdvPv/7rt83vfutK06+MInze/7vpc995zyM4n133hPe+8l4yq36FpelXh/7z2cxj93k5z7xezzef+hBUfj5l7v98c+8XWD980wz77O3xrAm5TuHvqd73rJNf/zXPzX0/ep+VxvmIn23G/RHwLuX3buy6rp57MDCPIe/koZ9JPnWhx7PcuXbCs7Drmpn5Dnr3d+Ux+LPBe7693vO7n+8+afv9bJ38uve7l/2umee6dW33pOt+l+39e79tfv8PvKZBZev5XInernHuH6f8xXvKU0dC7iO/svE9V7+6IO7f9a70y5WX4PvM22b21CHvM8i3jAKe+z1+/vHHzL9+DSm2QL+hwOEu9MgUHF+vorM9qp4VomFwFgF8Ll/FKqt1YyHTZ/qVW/SMKJrxNVKj/Lzzptl1DsaCf4vfhQUL/YbvPyTN3xDv+8Gw3IjG0wi/dpBenu6v8KFRKeJdSQ/4ah+i56nrazOfAS1vDM+Pslo0jTfXkOwnStNaCM5hLLLoDFO1vkps8OHsT5HPUeN9T0QUHUcIkA/zK4gkY9G8YaxKTUS/MUUzFklCa/BeS6InUNCMhRgBGHN6R9BrHp6m8/lrsT6H7f0aR3334D5FPunl4QiBJ2B+vbr/bHl+ptJoMCBARERERERENIY4ZYCIiIiIiIhoDDEgQERERERERDSGGBAgIiIiIiIiGkMMCBARERERERGNIQYEiIiIiIiIiMYQAwJEREREREREY4gBASIiIiIiIqIxxIAAERERERER0RhiQICIiIiIiIhoDDEgQERERERERDSGGBAYlKKhfX2FY+WpT2QF6tlzOI+Isgc4v75C+/oK7bMDyH5/82zKloiIiIiI6Pc10oBAQTMbgubPs27wKVpwg5UGV97A0uwcZkqtpz4TIiIiIiKisfbP0SSzAvVsDxnUsDm7AW00iT6uooyZ4lOfxG+KZUtERERERPToRjNCIJvBotTC4dugYIAx7L3tM5RcVus4Vw9wbI8s0FCwj3uA87MDqFrQqANF2O8K5+qKO1lzaLp7X3Of9TggpbBvbdesA4vnWoea9eZVGBLvSbOgXeFYDRsybx77ASMTZLXum65f2Yp/H1S2BWF7V/kF8ZRB9PwEl62s1ruOU9Ci55OIiIiIiIjcRhMQeD0NSb9B03ejMXpg8fsWZmbnMDM7h8O7FPY1p2UvpVNAydzWiOO92DCVUsjgyNi31EIiazUEV6CeraKzPWcedwsXb/50GpmKhva6hKq9fQ7vigBQxDtrSLtew6a5bUa2uqwryL+dw8zsUXd+sgc4313AhX3MI9yn91xBikTa2r6FKlLIDXHahKzWsf/mEpuzc1jKV+zfvb91ynbz+wI+WeWnaNif+mZvmykBOaHcIaWQs7Zv14D0RydgEMaaFiBcz2j5DC5bLf8NTWkBGTtIoGB5XsdFLUI+iYiIiIiIqMtIAgLyKylkawIxqYWvZgMWAHZOW8BkzOnhbRyZjXWgeatDmkoI+7dwaDXWf9xAl6aRAMxRCRIyu1av8R4ykoTYa+NPC8k49JO/kS8PJYuG19OQGt+EYxZRbwATr5yGqZNmBZ079za7QRw4kiJYYv3KaNy79l1B5o0EKb1n95zvpyW7/ArJODC/5vSqr8fd5S6WbbmKC11CTAyoBI6+cI/MyM178zmIIg5PgMWUFcxIImGXdXg+iYiIiIiIqNtI1hDQfurYTxsN9ZGuH6DXsDlA4/olapa20Mnu4Vxt2qMDDDqq28uBgY9mac4OtvQlZJ5/QVtDonFkj6ooaFd4P0ASXlrtEp+UDGRUkEjG0TwVJwWE55OIiIiIiIjcRjNloPgZVT3uHo5ua6Kji9MAVqBm49C/Vx/WkC93cC+lAoeN75y2IIUNgRdHG0T14wb6/KozLSF7gPfCsPbeHrKGQAX5t94pChV07iRkFP/jNW91JNa1aNMAlI/I4BLVng3uFcQmAf3WHPSfPcD7+YhZ6KW8ga93C8hkFSxP1nBoByTC80lERERERETdRvS1gxXk326hOrmG7kX8nIasPbT/7sjTyz2IIt5t1wBhGLlr0byijM0TCbmgr0Esb+BrI+5st4MZ1nD4NSRgTUkwF8Arb2CppDvTFHZTuC+NstfayPPEunO+O7KxVsG+Tz61/DIOxTx2Df0Xtq0jZFFIUQX5cssZvr87jYsT3dlsTTUQF220AyAhZWvaOdWR2V0Dyu5zCcsnERERERERdfvHHzP/+vXUJ0HPUPYA57vT+DorY+epz4WIiIiIiIiGbkQjBIiIiIiIiIjoOWFAgIiIiIiIiGgMccoAERERERER0RjiCAEiIiIiIiKiMcSAABEREREREdEYYkCAiIiIiIiIaAwxIEBEREREREQ0hhgQICIiIiIiIhpDDAgQERERERERjSEGBIiIiIiIiIjGEAMCRERERERERGOIAQEiIiIiIiKiMcSAABEREREREdEYYkDgN1fQrnCurjz1aRAREREREdEzM9KAQEG7Qvva+TlWhnFUBcfXdajZYRxLPKyG9tkB5D53k9U62tpQMtaHFahnwyrP/tJsX/sEHBTNdZ295SGrdWfbAGVMREREREREDzeigIDReMxN1rA5O4cZ8+ddcTSp07ApOL7eQ6y8harus7ko29d4ZvYIzflVJ2CjaNh/c2nXg83vC9gfeQCFiIiIiIiIRhMQyGawKLVw+HYDmu8fOL3N3l5jWa3jXD3Asd3jrKFgbjNGHKwhAQmZ3e7tRsPVOa7Yk13QrnCsHuC8K01zn/U4IKWwH9DLPSjXKImI+TROy9PrbubH6G3fQ0YCEuvWNu+IiYxz3K4eebPs++qpL+Jd1IBONoYJ6OiUzbSycTTLVj1YQeaNBMwn3XklIiIiIiKiRzeagMDraUj6DZq+G1egnu1h8fuW3at8eJdy9RpL6RRQMrc14nhvNux3ZLMHGjqq21aPtIwd+7ir6Ni/38LFmz9dDeVEegEX28a2KlLIKYDV2J0ptQBdGNEgP3w4g6zW8f7Wyefm9wV8EoIUQflE9gDn65Kdx80THWgcYSlfgZZfNs5fB5olK6/LyJchHHfBLAcxn4/LDnzspnBfsq5JAjFJR+cH4IwyOEITEmLDnvJBREREREREoUYSEJBfSSFbE4hJLXzNV+zf7Jy2gMmY02PdOLJ7o5u3OqSpRO9EsxksSuLIgT1kJAmx186f6Cd/mw3nCjp3wMSraIvvuebAR14LwegNl9J79n77acmdl37yKZZPD+H5rCD/dg4zgaM3BmMEa4yADdY9ZfT6AOfXRrCG00aIiIiIiIiexj9HkYj2U8d+ehoJx7xs3wAAIABJREFUYKiNzp70GjaH3NAFAC2/POAxdVS33b33kZSruFBSRnBjFwBaOJwdfr4eRxGHJ6v49GoFQBMdfQ2Z9Wkczi4bowbMKQX1fsuEiIiIiIiIHmQ0UwaKn1HV48j5zsNvoqMLw+PNeeb692rEBm8THd3d8w8AKHdwL6VcQ/L78uMGumQEMYajgs6dhIwywKr6ykdk7o6EhfqsIfjisaOPcHAbZA2BfijIpSXc/6wAqKD6XQcap/b5Fz6kIAn/JyIiIiIiotEY0bcMVJB/u4Xq5JrPUPsK8m+PcG8Ppd9D5s6YHx/52OWWsKCetRhfEe+2a4AwRL9rob4w5Q18bcSRG2RRwXm/fAI7sjGHf7/f6QbFz11l583Lzhcxr4/wNYwu1iKQxmKG1jQIKy/ur5d0Tw3Q8ss4hJOXHI6Gsj4DERERERER9ecff8z869dTnwT1oGhoZ2+E6Q/OQozRAydEREREREREjhGNEKCH6F6UMYGYBHMYPhEREREREVH/OELgRTBGBGSEuIB+wtEBRERERERENDgGBIiIiIiIiIjGEKcMEBEREREREY0hBgSIiIiIiIiIxhADAkRERERERERjiAEBIiIiIiIiojHEgAARERERERHRGGJAgIiIiIiIiGgMMSBARERERERENIYYECAiIiIiIiIaQwwIEBEREREREY0hBgSIiIiIiIiIxhADAjR8iob29ZXxoym+f1LQrtC+1lAY4Wk9bporUM+ucOyf3ZdDvHYjvj7DYlxn4+c5Xo+CdoVzdaX/HbMHOH/sazKKNIiIiIjo2RhpQEB8UR/ey7qC4+s61OwwjiUeVkP77AByH7vIat2VP+tnoJf/l6woY2Z2Dpsn+kiTldV6YADi0WUzWEQNh8WnSX44FByvS6huz2Fmdg4zszJ2nvqUBrAjz2FmdgvV0VY/ejSDBNt89hGCHd7PIu9nUvf2qEESI11nv0f4bCIiIiIaon+OJpkVqGd7yKCGzdkNaKNJdOS0/LKZNwXH16vobC8jX37ik3qmduS5kTc2HzPNwocU8H3rZdftbAwT0FFnnaXfnP0syB7gfHcaX32CX/rJFpbylb6OK6t/YvH7Fmas/RQN7Q8KUH7RkUIiIiL6jY1mhEA2g0WphcO3QcEAT6+K0DMvq3Wcqwc49umpMXpx1pCAhMyuX0+OIuzn7qkvaFc4Vg9w3pWmuc96HJBS2O8x9D16GRzg3NNbJKt1O10jn4pQDp6epaxwrn6jK8yh3v31ornLx1V22QOcnx2gIIx6cMpPwfG1hkKEqQH+5dB9nR3hdcF35IV5zP20BMyvBW4PTNM1TF4sQyOfqm8ZuMtxeb6Fr3bjwcxD17n37mUsaD7X0LwWsqL5lPMK1LM61P/P/Jsox/Oyymc3BQlx5ALuF//eUjN9pbuMXfeuUJeijJjxjvZw/z84zShceYn4rHHS9d/Xe3968yimmZv3yWtQmuJxd1OQvJkZ6L7vfb4x4ZzEYwfeg9a5aErglA13HYr2fDPS20NGAhLrz7/XXfupQ0r/aZ7fCtRsHPpt86lPi4iIiCjQaAICr6ch6Tfwfy0yRg8sft8yhynP4fAuhX2hMSClU0DJ3NaI4735EmoMDT5CE7rPMOcVqGer6Ni/38LFmz9dL5KJ9AIuts3hxUghpwBAEe9m5zBTagF6DZvmOc3ID+zhKW/ga0PCYsp6gV5B5o2EZtkJkkjpNcTKc+ZweyDzwSoDBce70/hqncvsEbA+jHm+Zl5nrTQlu2yNE0ohN/XN2L5dA9IfhTTjyGVvzPI5QnN+NdpLenkDS1b5djFHktwd2ec0IwSRtPyy8/vZI9xb52Mec/NEBxrOvnbvXliaiob2OnBoHXe7hol1scERR+bNpZHPrjIwyOoqJk4+Cz2MFeTfGnXqk7oCZA/wKa3jMMIQ/OatjolXK7CDLoBx/9x1oP24gT4ZgwyxoZ9ATNLR+X87uJemkYDVsF0BsILYpI7Ojx6JWuWzXYOOll0WVvkVtCvkcOSqJzlXA1xCJgv8Neu9lwApvYDO9hGaZl3aPNEhTSV6nFAUwWmGkdU63t86z5rN7wvGNbKOGvCsCa2b2QOc71rPEqtu7rmGn4vld9gQTkjRsG/dY7NzmCkBOevZ5z3udg1DmQWRPcD5bgr3pbnuewUAEEfGOqdSC4msc60D70HL/BqWT+e6980e4P2k8DydFUdPBT/fjPSM6R/Nkndf7/D8IQVvTVJ6zz/4E6YoY2b7Eou7V2hf7yFW9pYtERER0fMykoCA/KqrX0uQQEwSe1eBndMWYDZ8AACNI7wz2+PN24gNimwGi5I4cmAPGUlC7LXzJ/rJ3+aLZQWdO5gNsQj58fSSRe2d2/lSA95kzBdknznnQj612qXd+IOSRELoubVGRcTEBrg5b/9dX3EL9wv1flrylG0Lh1YgpFzFhS6mqaNatBrrRdQb7rIdiDWSJCj44urJ9ymDAcivJOhiY97Kp50XIZ/lDu670lSQSwMXNe9LfwX5t0bDsL27gIttdzAgqA5pP836nY2h0wCWFfMcb5tG+tI0ElhB7LYFJBVjmL9+gyaa6JjXJwEd91MZyFawoByeZjgjqFD94lwTrXYJ3Qw+WJzAVgX5t0I9bHwz7zH3Mayyc41Q6XPNjsA0Q/KSeSO5GnpddT7oWRNWN19PQ7LzCRj3A+zAzvK8X94NhWTcNaqlvR63n31yasFzXB8D3PfGcY9C9hHy+ePGfa173YO68Ewryk7QpNzBvZTCvl/vfpTnmy/jujsBiiEFb62snGx1B3+MEw6ut4pm3u9WcHEM15AhIiKiF2UkawhoP3Xsp42XypHOsdZr2AycpjA4Z62APpWruFD2jJ7MVwvA97+jH6dxNLQXXYus/ula10FW69ifGmoSQ6TgeD2OZslq/BjrNDw5JYlE4xveBTbadOh6d7AksA79uIGeBOTUNPDlFPigIAEJ96dGwKGjJ4FsBjF8Rh0fUXgNSHen0FBB4u5PxKBgeeoUh7dJZBSYwYIeaT6ZIt7NjnputY7qM1vbw6nTbv0ER0bjIfegda3NIOSuJ98DPd/MURveeHPjCDNywDD9wJFq/Qiut4VkHPrJllm/NrD0WkM7m4GMyjO794iIiIgMo5kyUPyMqh53hsK6NNHRPUNzs3Ho36sRX6DMnlFv77TZI/Vp0N4Zb8/YUFSQL7eQSGrIpXXXqAgvY5E6swx+3ECfXwvv0R1gLnFiSgLuOvZCiLl0yEgO5SMyuETVryGVPcD7+RbqD23blau4cNUFMQ1jwTtr+LusrnZdG+2n7h5ZEoEx51cY9qx8REaKmpcVqFkpoPd3BerZGlBaxlKxhomoUzzKHdxPJpGbukG13ERnMollO98VdO4kLH+YRqdWQfNWwnIS9hzl5i0Q+5AETovQfgKLyWnh+g7KSNOZvmLUTalx+viLQlrXMnuAT2F1MzIzL0p/IxEAhNfNHzfQxSkz2QO8n9fNUSPG88maKiSrddcaAs1bHYmAuqH91IH5pLlNwbHfGgLm3Pt+eqG12qX7fKOKcA/2ZvTqb57ozoisns+3oBFcYSMEjH0SSU+9ffD90Js44iR8dBwRERHR0xvR1w6ac6on13yGLAtDq62h/XdHfcy7NBvZ9oJT1st1Ee+2a4A4D7Sf79cub+BrQxjGOqyvsyueojkfR8KvQSUMHc7hyD0HviTmsf/h1X52vtSg22muonPinWMv5H8dnkUhhekYniHx1tB01yJ/VvlZQ47FRRvtvHjrgrDNXIPBSnN/6rL7a+WKn1GFsxCk3UgKS7MoG3Pi7XxKqG5H/Lq9wCCJM9/8XdE4979OJOSiLoYmxZFABxoqqH6XkJh3hv0DEhLzQKdsNOwm5uO4/+ncK4l5yWiwFU9xPx8HhrCg2Y7svndzkzVsDnm0ipeW/4amda12p/HVd80JP9Y0GPdCdFZjc0fectWR6EG08Lq5VNKF+yGF+9KyPR0pX3SeQ/vmOgpOPpdxKD5nxHpblIVtq8ZaDN7TKndwD0CypiJF4T3fqAGFKPdgEM/CnftvLvFXH8+3nS/iszzaffQU9dab5n5aD1lMl4iIiOjp/eOPmX/9euqTGC8Kjq/XAM8wYWO4/rehTwsYWMjXcfFrFQGr0R8r97tuA9EwOYuycvE6IiIiIurXSNYQIIesriKh17DJRuQLV0H+LRtg9IQUzRj10jhyvveeiIiIiKgPDAiMivXyjhYOZzmElIgeqChjhoFFIiIiInoAThkgIiIiIiIiGkMjWlSQiIiIiIiIiJ4TBgSIiIiIiIiIxhADAkRERERERERjiAEBIiIiIiIiojHEgAARERERERHRGGJAgIiIiIiIiGgMMSBARERERERENIYYECAiIiIiIiIaQwwIEBEREREREY0hBgSIiIiIiIiIxhADAn6yBzi/vkL7+grtswPIT51m9gDn1xoKozgPIiIiIiIiGgujCQgoWlcjt6Bd4VxdGcbBcXxdh5odwqEs5Q0szc5hptQa4kGfYZqA77WJvJ8VwLi+QltTXJsLWtC2FahnwjbvtRMDI8O+rkRERERERGTjCAEagILjdeBwdg4zs3OYmd1CdXLVbrzLah05HJnb5nCINTv4I6t/YvH7lr1tpqQj80Fxjru7gIttc9v2JRZ3OTKCiIiIiIjoMTyTgICn19hnNIFfj7Lx+zUkICGza233NCDNnuxjdwf2w3h6x73Hdp+vcD6u3u/+pyPE1Lp/mp7jukdeeHvkrfNRcHx9hfZ6HJBS2A/o6ZfVuk9PfRMdPY6c9bfKR2QkHZ2ycdxcGqh+KVqFheV5QHqTgQxA+6lDSv9pHm8FajYO/bZpprWKROMb8mUz7f+/vftbaSP94zj+WfjdwpQihm5kpWDwwBaUegExB7Vj7qDgHwieiJ7Musdrc6J4IgGtsHcQp3oQcwEpCrYHEqEEEhaliHMR+zuYmWQmTmISNbbN+wULu8bM82cyss/3+32eJCdkaEzTD3nvAAAAAACS+hkQCC46qxUtjvsvzCp3shXKGu9dJ7XtLzbTO5p7XtRKPRs9XV8wbpijio/sqyxHBT+rPGJq4zHHYdmqBbPja0U9WwoHKRZD/Q30x98WEBjnYseL3TGlhj55WfULJdJeMCG9o9NgVn1kXzczW42AgbWg1HUjW9/oT1Zv/S0KTqC/ZrZVBwIOlZlyM/+1akW19JVW/OumY3omLziQ3tFp9Z0ud4tyjGElJClrepn/imrVLcXyo5rMHEqSEkNGPTiwble0PfRJe+fSsxcPsbUEAAAAABDUv4BAcNE5Mqq9c/+FhGLGhQ68RaEkbXy+kJ7H3AVv/lI3RlLbve4nz5qKj4zqbSfr3A6YLww5xx8Di/yCzhxDsZeSmw13VMguy458t5eVDwRFOl/sXmjPX6x/u2ossF8Oywhk1aWsSsFF9LcrOePztysnOmRnpkNBGJdbdeBvC9i7Tmo7qjJjc1gHI9PKfGv+uRfAWCvq2VJzRUNCuZOK5r6vdhicAAAAAAD04gfZMtCOl8ke+SBZ0SX6P4t1e16J8/2IoMgjqlclfNb0Qx3Ul07ptdEIUGyYqyo4Xml//lI3GtNisGrg5bAM50plSetvxuQcf3ADDPllTe5e1LcTlL87MmbmA1UDs4o9l27+PWzVEwAAAABAj36AgIC7H32uniX29pV/KTRl2d0y9ZVjpymrXtZlPUMf4YHPEHD3wC80suHWglLGhUpZyc3OG4FD8oLcxa1fEq/0jubGI36tW9+u5Iw3DvRzr+vorNi8iHYDK3vnTXMVrDaIEH2GgCQZitV/llDMaLRTOlfg/t2+n8ZQozXzRf2Nsotf5cifSzXNLQAAAADgIf3vqTvgLvQTOqpuqVbdcn90vq+4v4XAst2D73xOUStTh+H35xdUW6qotiRJF9q77zkCoTbHtF2taNspamVqWXbW1MqLkrarFS26HVJhbbre3oa5qtjJlmrVee8nfn/8fvrjvFDh2NHrTtps19f8siZf2qptVlTbdH9U3h1tHMyXK2l7prHo1vm+4tnw+w/eV7Toj+d8/+5S/Yg2neNVTWab52Cr8Zp3P6Pnxxujf9363D7AvQQAAAAARPrt9/gf/z11JwAAAAAAQH/9AFsGAAAAAABAvxEQAAAAAABgABEQAAAAAABgABEQAAAAAABgABEQAAAAAABgABEQAAAAAABgABEQAAAAAABgABEQAAAAAABgABEQAAAAAABgABEQAAAAAABgABEQAAAAAABgABEQAAAAAABgABEQAAAAAABgAP00AYF1u6Ja1dZ6t29M7+i0WtFpbvYxutXE0lG1pFy6D031ZFa5k4qOrOhX1+3gPLm/W6tWVOvbmNq1+aPPLQAAAAD8XPoXEPAW5jXvn/4s0H88Zq6kmt1iRW7Zqp3syHysxtMpvVZRe9nIxjU9fqGDzKH334fKTI0qPrKv8mP155anaFPqPdhg6SjwmW4OWJm5UuO1pvsaeu3W8xC+bqsADgAAAADcR58CApaONpO62R1VfMRd8N3MbHW10NkwRxUfMbXRbdP5ZU2OjGqyvtAdXOvvk9KXguyI18zcOyXOP3c/vwNs3Z6X6p/pUa0cG5rzF/aWre1XX7Xiv/ZlQtt+ICi9o78Cr7nPw4IXTJhV7iR43X1picoIAAAAAA+vLwEBd7G5r7f1zHRWe8eOEm+8BZJlq2Zb3raApqxosLIgKntu2aFMazDbGnk9z7pd0VGu3bW98vVeMvZJ+3bm1xvH9owhjc83ve5lhJfGJCOpbb9PgQXk6cmO1gNZ5VsVFt48tA6yNFcAhMeaeiUV/oksHYh2V8VH031p9Kt9Vv1OUXPrjaGx3eD2fQt+FoLbEdyfzyshQ6nNFn1qMbfl744SS/7vWlqcMXTz76Hbl/SYyvllL/gyq9QrQxp/4/5u/lI3RlJ/ef03c++UcK7cqghrQalgFYf1RgkZep0czIoaAAAAAI+nLwGBxJAh53u4CNz+15GexxqLtvF5TX/2sqK7F0qkvQWdl+GP717cvnB6R6dLhgprfobWkc7369UAblXBqgpOi37NTOhszfsdJbX4IKXZhlKvrtzs71pR8jO/3jj8PvpZZbevWb31x+gUG5ljM7BAN5JaHPrk/jx43Q6ZuXd6dvwxugLAWlDq+pMy+Q4vlt7R6aY/dxEVH5atWuC+xEdGQ8GgtyMtsup3ajG3mlXuZEuvv6zWr7t3nQxl5OeeB+Z1ZLo+Vvczsq+ynEB/O6tEsTPTiu9Ki9WKatV3ulzzx5lQzHB0+U1yAyBbiuX3VZahWNqfg1WdvdpSrVrR9tAnxafc4IH5wpCuL91/z5VUS19p79iRMZTocI4AAAAAoDM/zqGCTiArmjXrC6SuBYMMdzV5/MFbGB7q8lp69iK4MPX2s3fdD0eFrPee/KVu6ovA+7rQnh8gyBd05jRdN2s2LbyDLC3OSGfF6OqAXHpM5c9dVAe8HJZxHgwgZFU6b8zf+puxwNxGtBfI5G/PGF0sdlvNbUIxI1z9sPH5ovFZ8DLy270eSthibs1cSbUlaW9kVPFdR6nNpiqClzs6DQUKfG6QwA1grKrwfD6yosEPFPT3PAUAAAAAg6IvAYHy99sZzmAmtGfewtgv9d6ecbTXayDhV2a9UeK8RQVA24MGH56Z+1MpNbL1K8ctyjcelF+V8EGyHuqgPncbQHnXqybImlqpb4Mp69IxlFoa1oFfjZCO6ZkcXebl3g+nqL8zh3IDT/sqGxNKpb3KmfF5zX1frVeIRFXYAAAAAMB99SUgYBe/yhl/18jOpnf010yXe9ajWAtKXTfK73s6dLCle5wh0MatrRJB367kGMO6M19uLSilryoEF/gtzxCYVS5ttJzr9fdJ3eS7DKJ8u7p1P+fGnXoFwsbnCxkttjQkhoKBIHff/f2VdemMBbYeuFUPzq0DFN2qj5Vjp6kaxF3Ax162uHyb8xmC10kM+WM5VOGLIwUOaVx/n5QRPLQxeJ/TMT3z/z37WWU15rJ5bgEAAADgofyvL63klzX50lZts6Lapvuj8u5oZ3vWLds9bE+SNKbtakXbTlErU8uysx9VONlSrTofeMOF9kZMbXj7ylP+Gm2potqS2250WX2fZD+qkN5yxyHJOV5tfANCflkH7ytarFa0KLlnDdTPERhr/FwX2hvpcBHvBQ9WIqsDdjQ3fqGDyOiEpaPqfH3RmtisqLbpqLA2rcxd9zNrauVFSdv1/jbmfeOfouY257175qhwfKHEUCdtthvkoTJTCR1Vt1Srbrk/Ot9X3J/X0GdI7jkNU4fh9+cXVPM+I43PUJdtOkWtTLn3y85MK+EdWFjvj38vW8yPO8as3q7FdFqf207GDwAAAADd++33+B//PXUnembZqqWv3OCApODhcr/U1wymd3S6OayDrisg3PmI5aODIOt2RXPff7G5AgAAAAB0pD8VAo/EfGFIugr8JKGYIe+r3+BmsVvPxYY5+oBbLAAAAAAAP5OfOiBgZz4oddIov5e8Evyn3BIAAAAAAMBP4OfeMgAAAAAAAHrSl28ZAAAAAAAAPxYCAgAAAAAADCACAgAAAAAADCACAgAAAAAADCACAgAAAAAADCACAgAAAAAADCACAgAAAAAADCACAgAAAAAADCACAgAAAAAADCACAgAAAAAADKCfJyCQ3tFptaJataJataRc+qk71L11u6LT3OxTd6Oltv2zbNVOdmQGfrfm3Y8jq3/9a9Xmjz63T6G3OZlV7qQSutc/tfSOTqu21p+6Hz+Lx5qv4N/vX+WzBQAA8AvoU0DA0lG1sZjrfhE5q5yV1M3uqOIjo4qPTCuTf6y+PqGmRXfTizp61ECIpenxCx1kDiNfXX8zpnJ+Wbb33xvmqOIjqyo4j9Wf256iTX+B3H3Qw1tYtwpitQtwWXboWanZ4caDgZHm1wIXaXs/+6fX+btLZ8+DmZyQjj9q46Gbv9WX8N+32g8QhDBzpTafj171eD/zy5ocGVV89+KB+wMAAID76GOFgKPCmreg371QYqmb/2FOKGY4uvz2iN0bcGbunRLnn6MXTukdzY1fqJTtd69+XmbuT73+suoFsEYV33WUeu+voiwdbU7ozH8e1r7q9ab/PFg6WpL2/PeNrKrw/F194WvmSlrUfv26e5qPrAJoez/bOlRmalTxqUbw5+dlaXFGOis+dlAkq7cjo4qP7Ktc/ztnPnIQAgAAALi/p9ky8O1KjgzFAtm9UNazniX3M2/zSshQajMiKxrKtIYzV+t2RUdWMHsXDkJEt+ld82RH67lS/fXmRZeZK/W4dSHV6E/zOJfGJCOp7absr9vPpjmoBhaQVVvrwazyraygd/2W2cJZpV5JhX+iV/zdZ1mbsuPNVQ9N9yw4t6F70nUlSdTcRl23KRjVlJH3++Pe4y2lDCmx1Gq7SvTc2v86Mmb+9H53Vrn0mJzvZe+675Q4/1SvcjGTEzI0pmlLksq6dMa06F/PWlDKcHSZd9tanAneJ0vT45LxKtVUVRJ9P9vNrRn4rN/+DDVnwBvzd+s58O7tkdXZ/LV8Bm/1t/G+9s9DsNtvQvPcvk33Ocp589D4u+Fdt4O/Ca2s2xUd5VqXzLcaZ3A+u/r75r1ne8aQxue77q8kxQLj9Ntsez+9+cnZ3s8sr99sDwAAAPihPUlAwExOyHC+quAviHIlzX1vZFNXvkzor9ysojNvo4qbjQXR0eawDurZ1H2pqfIgsfRGJT+bej6mucBiL7pNj5HUnD54GdyiNLPwICXAxsyELte8zK+SWrTUGOfuheQUtTISHqdbKt80B6EM5JgW01fe+/ZVHn/XXaDCWlDq+vbCyXtRizNOF6Xns8qdbIWy43vXSW37C8z0jk43g9s/RjUZuLY71tH6vD9Ld76giJ5bd+EUzKqvHBtarC9UZpVLG4F5bfTHzkzXtyiUu92ukjW9zH9FteqWYvnGdRNDRj04sG5XtD30SXvn0rMXs/Iz9HvyFnLpK6349zod0zN5wYH0jk6r73S5W5RjDCsRbLvF/Ww3t+5YGxU8TYPxnsPG/PnPkZ2Z1sqxlLJ2ZAa29rzN3j1/bZ/B9I7mngeehcD77n4eAve1KSjS/rkfU2rok1aOHSWW3ulybV/lYODSSGpx6FNPfxMSM35FSPiz2W6cPf9988rzV44d6Xz/1uf6bu481Ku5vM/Jnc+DkdTr76vaOzeUWhrWwVrEZxMAAAA/lD4GBBrZvO1XX7VSL0meVeqVIWNmq56R2p4xZAx18L+R1hslNKbFeobMzRoGKw+cQGZ7w/T/p7iTNgP7r/PLmmxacLj/c9z9WQbO8QfvPYe6vPYXgfflqJD15zOr0rmh2Mvg696CzoyqAHCz1+XPLaoDui49TyhmhPeub3y+kJ7HZMoLBp3v622L7QehTPVmUkYXC4rouZ1V7LkTWhjaxa+BhcqhLq/dz2ZvhxK2mFvLVs3fFrBW1LOl5usnlDupuIvT0Hvd6go/gLF3ndR2VEXD5rAORqaVubWNpvX97H1uwxUfzc+KnZn2+ukGglrd2+Zrtn0G85e6MZLa7vXcDGtBKTWCjh21qcDnJKKyQLrQnn+v8gWdOeG/Ne20fO7bjbPnv2/3FRjnt6suFvWN59559HMbAAAA8BCe4AyBfZWNQMY49Frgn8jFa4RABqy7Awfv0eavJJ3SaxW1Fzn09lsJHr4vO/prRo37slZUP84P9DPnf+vPOw7q69z6m7HGIjC/rMndi3ppf/m7I2NmPlA1MKvYc+nm30P3fhiNBdmGuaqC420nyF/qpl4N4gWoXg7LcK5U9htudT/vMbdm7k+l1MhirxxHv9NxnM4CeY13tHkG/aqED5LV/faR5kMwO2vzKdwxzp7/vgEAAAB3e4ItA1ntHTvS+Bsv6+llaK0e9pp+u5IzPt/DCeb3aNPT+xkCbbTNxpV16TQTUhmJAAALrElEQVRn/iNEHgDY+gyB9fdJ3UQunHTHVoJW3D3wc/VsuLd//ktBtrzsfKstDS+HZfgl8V7fjG6ajuTd6/eNsa+/T8qIqHqwM9PuQtmrZmi8v10lR+u5DS6OzReNkdjFr3IUuEfWglJG8J4Fs8AJxepvzap0rvpcNs+tP7bI+3mPuU0MGdL1pXdNS4sz4Xf6Bx1OTn1Q4Xnz89hq/jp9Bt0tFCvHTtM12jwPXhn+7SDX/Z/7usgKhPuIGGfPf99c9r9OvTLnNr/qo9tvQ3jIyiYAAAA8tSc5Q8DOfFAhsGjcMN19tfXD9DrNBnqZ18YBV50fYtVzm48pv6yD80CJcGiReahMPjjW4P/IBw5X25zQ2VqHJ5y3/faAdlsJ/MVE+IAxd/4OlZna1029LHtLqev9RilzflmTu07gMLhAKX32owpOY/xz34uNzHfbNtvbMFdVeN44XG3xeVErwXMoggfmbU7oLBteUG/8U5Tq4+ksCNTc5vaMoz1/m0x+WZO7atznJWnPz/jfmp95PTtulOFvmKs6e9WY29dfVhtz2+5+tp3bO8byT1FO/XC6d7o8bpwxYOZK7tjMrKRDZbK3t0e0mr+2z2DTQY/br77q71A5fOvnYf19UgoESW7dl56f+7HwPatve4o6/LTDhXa7cd7j75sk954Hxtrblpjbenke6uMMHpzKgYMAAABP7rff43/899SdwH1YOqq+0+Va96XE67a7hz1y37Fluwfa/RJfPzcY2t7PLpi5kraHPv2cW2jSOzrdHNbBQ3/t32NdFwAAAHhC/3vqDuDpbJijrRc3WVPxn3A9OMja3s+OuQfvOV86rR/4weSXNckeewAAAKAjBASAged+VWTKPxrgfF/xBzmtHgAAAMCPjC0DAAAAAAAMoCc5VBAAAAAAADwtAgIAAAAAAAwgAgIAAAAAAAwgAgIAAAAAAAwgAgIAAAAAAAwgAgIAAAAAAAwgAgIAAAAAAAwgAgIAAAAAAAwgAgIAAAAAAAwgAgIAAAAAAAwgAgIPytJRtaRc+qn7AQAAAABAe/0LCKR3dFqtqOb/c7Ij85GbXLcD7VUrqlVtrXf6ZsvuSx9ds8qdNPXVth7s6mau9KDXe1wEVQAAAACgH/7Xn2YsHW1O6GxtVJl8f1r0Ocermswc9rfRHpV3R/U2K7kBgi3VbCluZp+6WwAAAACAX1B/KgTSMT2741dC2fzmzHxTdcFpbvZBuhXdpqWjakW1pTHJSGo7MmPflNFv7m/SvmdfD5XJFuWMv2lUNDTNwVGwO83VF35fvZ9vzxjS+HyLPnlj6boawpun5mumd3R6sqOcXVGtWlLO8vrmXd/MlXSaswLz16gGcO/HvBIylNoMV3WYuVJTH91+P9RnAQAAAAAGTX8CAvll/X0sb5F3u2zfzJU0931V8ZFRxUdGtfJlQn8FF5ibSd3sjtZf7ybjb8xsRS7cW7eZ1duRUcV3LySnqBXv9Uam3s3ep6736++NTy3LbrSo1Ksr931rRWlmofNtCqE5u9SNDMXSklthMawDv72RfWmpMY/r78PzU+9rflmTI6NaOXak8/2e5i/arHIn73S55re5qrNXfzbK/I2kXn9f1d65odTSsA7WinKMYSX8l2fmFct7834spd67AYwN0x1bWY4K9Wub2pBkZz6pbEwo5beRTum1caGDn6T6AwAAAAB+NH07Q8DOTLsLvF1pMbQ4n1XqlRFauG/PGDKG3OWjmZyQcb7vldLfZuZKob33R01b5Z3j1YiFe/s22/IWonstS/kdFbJeO6FFvdScVe84K2+9UUJj7rxVG1l0/7rl744SS72eO3CozFRzUOMO6ZReG8Es/pZShqHYS/8XGgt15/ijNprfH7ifdvGrnOexDuYhq71j6XXSDRSZyQkp6toAAAAAgI706QyBgKypeNbNsi9akp2VJEeFtemezhewM9OdL2RDem+zd1m9HenwTIB0TM/kqJSXZMnN8LcIQtTnwHK3KsgpaqWbBX4vWrXxiIcB2sWv+mvTrbiIvZLOslQHAAAAAECvnuhrBxOKGf6/H+ry2lDKis6W28WvcsbfPfCp8+3blCR9uwqVudflCzpzxjT3qHvXLR1tJhsZ8G9Xcsbnb1U/3JI13ZL7pn7b/zpSyyx8D2cI5C91YyQb2zruYf19UvpSCAQWyrp0gtUGwXaXdXA+pml7QanrT30/oBIAAAAAfiX9CQhYdqisv1adl+on6ksb5qoKChzgFyz9zy9rctcJlKc/zEFybdv02j04D5Tp18vxD5WZ2tdNi7MJ7iOxFJ6f+l7//LImdy8Cr4e3XIS/snBe2jXDpfTZj6Gx3n/+snq7VpSCc9DNVzoGDjhc1H7TmQaHyuSDYw1fd+PzhRLjYyp/5tsXAAAAAOA+fvs9/sd/T90JDA4zV9L20Kfev07RslVbkvZGTM4PAAAAAIB7eKItA0AvZpVLj0UfVAgAAAAA6Er/DxUEerBuV7Q4LvdwRb5qEAAAAADujS0DAAAAAAAMILYMAAAAAAAwgAgIAAAAAAAwgAgIAAAAAAAwgAgIAAAAAAAwgAgIAAAAAAAwgAgIAAAAAAAwgAgIAAAAAAAwgAgIAAAAAAAwgAgIAAAAAAAwgAgIAAAAAAAwgAgIPChLR9WSculB7wMAAAAA4EfXv4BAeken1Ypq/j8nOzIfucl1O9BetaJa1dZ6p2+27L700TWr3ElFNduq/8Ttexf9BQAAAACgC//rTzOWjjYndLY2qky+Py36nONVTWYO+9toTy5U1hutS9qQpWldqPzUXQIAAAAA/LL6UyGQjunZHb8SyuY3Z+abqgtOc7MP0q3oNi0dVSuqLY1JRlLb/uuB7H09o9+qv0m7y74mFDOk0mdp2pJkvZE+fw7/imWHqh2OrNCLbp+rFdWq80p0NM6msfRQDRGuwAhWM7SZn/SOTk92tJ4rRc9R0zgf6l4DAAAAAML6ExDIL+vvYym1GV0Gb+ZKmvu+qvjIqOIjo1r5MqG//IVgekenm0nd7I7WX+8m42/MbEUuTFu3mdXbkVHFdy8kp6gV7/W4mfXeOavcyZZS1/v198anlmU3WlTq1ZX7vrWiNLPQedl/9rP0xtL6G6mULevSMRRLy10kL0l7fntrRT1b8s8JsHRUnZfq87MfqixoO7f3sG5XtPg8MD8jpjYC8/P6S6PNveuktoMBFSOpOX2oj6UxR7PKpQ0V1nq71wAAAACAzvXtDAE7M+0u8nalxdDifFapV0Zo4b49Y8gYcvPcZnJCxvm+3majr2sGMs23M+fuloHbC/f2bbaVTum1caE9s0WH5KiQ9drJX+pG3qJeUjiTH5WVz2rv+zvNff/oLa69Mb4w5BwHfpYv6MwxFHspyXqjhFPUXmR3OhnnoTJTzUGNu1iaHg+MMyShmHGhg8BCfuPzhfQ8Fhhr4PX8sibrwYRDXV4bSm1SGQAAAAAAj61PZwgEZE3Fs24WedGS7KwkOSqsTfd0voCdme5iIRvUe5u9y+rtSMTKPR3TM+dKZQXH81AL4qcYZ+82zFFtyA/0bEnn+4HqDAAAAADAQ3mirx1098y7vKywFb2H3S5+lTP+7oG/Rq99m5Kkb1dyjOFb+/Hd7PyY5vqYwbb/dWQEtx5YC0oZFypl/X5OKJWW3HL94BkCHYyzpzMEsiqdG0q9tyJeK+syND+zyqXH5HwpdBW4sTPTiq8V5YQqCwAAAAAAD6U/AYGmg+Jq3p53fxvAhrmqggIH+AVL//PLmtx1vPMHHu6gubZteu0enI+52xtChwoeKjO1r5sWZxM8LG9bQNbUyrHR6MuSocKaV2YfOp9hS7H8qgpOF+Ps0Ya5qsLz+YhDBZvnxz1vobOzAJq2VGxO6CxyWwIAAAAA4L5++z3+x39P3QkAAAAAANBfT7RlAAAAAAAAPCUCAgAAAAAADCACAgAAAAAADCACAgAAAAAADCACAgAAAAAADCACAgAAAAAADKD/A1ndP7AWp860AAAAAElFTkSuQmCC;" vertex="1" parent="1">
                    <mxGeometry x="199.76" y="-270" width="761.48" height="220" as="geometry"/>
                </mxCell>
                <mxCell id="33" value="" style="shape=image;verticalLabelPosition=bottom;labelBackgroundColor=default;verticalAlign=top;aspect=fixed;imageAspect=0;image=data:image/png,iVBORw0KGgoAAAANSUhEUgAAAXcAAADgCAYAAAD41CaxAAAgAElEQVR4nO3dX2wUZ5rv8S+rudgLj2NEmuEYumMI4A2EXaWbDH880QlaiTIkju3DxehAxB8xtkQinEwigePV2rEjOSYSgSUKlvDkQFDgaKQzsh0nQCPNhihrYhPaUZYQ1hDA0x17GRoLx+OL3OVcVHV39T+7bey2Xfw+EsJVb9X7Vhvx1NNPvd3vnMceW/Lzz4iIiJP8gjlzmDPdVyEiIpPq7+YosouIOM4vYA5z5qgwIyLiJL/4WRV3ERHH+cUc1WVERBzn76b7AkREZPIpuIuIOJCCu4iIAym4i4g4kIK7iIgD/SLbA3rK97Pnabh87AB/6hvlwIIyaip93P/0X2nujOx0s2V/JasJ0HygjWD04CL2NK7k25qrPNlYjKfvHG+cd1HzW/joQBuPVb7F5oIQZ2qO8UW6MfrNn3+Z7nr6zvHGsc50rdPOOHCGKv6N5/b70xxRxcnubSzPoK/BC7VmP5ua+HQvHNlcjT+T8wc/o25zNemuYHpVcbJ7NZfXbOdImiOMA2eof3ZeBn31cnqUfrLHoOnMK/DeZqrP2vYeOEP9qv9M+rdI9fquX/iMec9uIOlVz+h/S8nElAZ3M5DnpGxbXfkWq+P2jKQM+J7n9rOl39zvKd/K6keAH+fzWAEEI8cWrcSDm7nld7lv7Xpmo49fPhLiMYp4sgD48S5/yeCa//bVMRpbQ7Y9RexpLMaTwbnZYdB0poHUMaiBru6GhH2RQHSE7WsSwtHek3y66FT6G8LZao48e4b6M02weYD4oGbQdGYbA5tnQpBLsPckXS8Wpmxa3t3N1oR9kZuZf//mhGA2g18jwN5tPHv3HGvPQtWJbrY+YW/cQH13N/UADHLhzc1UR17fWP/um5o4+exnCuyz3JyCxUvTforp7//+75m/YEHak38cGuLHoaFxDTh25j6OYGrLpp+p3M+TV3vhOR+evgBnKOTJqwdoppK3n3MnXHiA5v+Yzx7b/r/1haDAPSszd+PAGapWAXfvMfjXU2xP+Z8288yda6dYuzMWzqpOdLM6cApeXM3lNZdZnbIfK4CcTWqYAao4eaaYefPuMXgNLu9MHawzz9zTvdYqTnYXM5DYFvcOKNU49v5SZ+MprjbuxmP+G61h+3upjovvL/FY48AZtv2wOe22zE6jZu7Pl/4vlv/DP6Rtv/5f/8X/++PpUXqwyiiPJLckZu5JGbMtmCbfEOJvAJ7y/WwuyIECn7mjwMdmgLllbLnvBqySTFElbz83l8t/bCPYB2/0J5Zl3LHriBw7VvloWplZ/KortRy58gpVnOIUr9B1ZkOKt9TxmfvYZRxbENi5Bqji5IuRlsSyhBVAZqK9J+l6EU6vOcfq7tVc3nmZ1d3dnPwoORDGZ+5jl3EeRLT0FbnGvU0YZ8dRBtm7jVVXTlG9qYlP38xn8Bosf7GbrhdTHTzIhciPm5ownujFvzPWWvgrGIgeYLBhlX1bZqtRg/tf7/z3qMH9r3f+e4zuQ/zpwL/yJ9uezGvuxbzdWBy3K7mUYwq2HuCNVlvAj9wYCsqoqbSNPX/uGNcLv3y6krefTjVm6rLRdDHfhg9y4c01PHcWjANmcPXv34x/UxOfdndTZQsgyW/bIXUZx3LtFGt3nuJkdzcnSQyEhWxNKm/YAshMsKmJT9/cwLxrp1i75ghQxUkgcpOrOtFNV7ftJhU5PqGbVGUc0yS+U3nvMtdfXE0hZBzcq3yFzHuiga5nzesY+G03pLhhJZ33W/N3Yr8x58+/x0D0dRSSz39yaka+A5PxGDW4f/H5Z/zjU0/xyCN5SW0//jjEF59/NsrZ6bN2SB2ozazZ2hhH5h55MMpXAYJP+/Ak3RjmMr8As+b+Yy9fJdX136Kmz3zXEIw8wJ2pmbsVhAav9QKFPPtmN11vRhoTgvWzDXR1v2IGoZ1rrP/QVZw8k8+plA/LkrPV7W/m8+neJoz3BmzHzezMvepEN1vn93J9EOY9sY2u7m3Rtvhgbd2krp1i7c5qnrMC2mhliUze8YyXcaCY5dfOsX0c5xzZuYYje5to+r6a6rNQ9VvAd5Ku7tTPGq5/tIbtnLRu8NbvZPAz6jZ/RqqbdX1CciCzz5gPVD9pa2Xbjl0p948uIWsvsmrfP47wt0dybLNg3GzZvxX+GAmi4390+cxGH/c/Pcbd31Sy+kf7TBo3W8o3Mf9pN4VPFcHyHLgfJkj8w96grSwz4521gtDek3z61/T/+VIFKHutN/awLVEvl1ONRxWxEDmzM/cjO9dwxKpJpy+rpLrJ2Z9LpCtxwOAkvNB5z8ZuxIMXalm7c7xBtIqTL25gOd107f2MC3cj11bLEV5h2w+bObXoTOxvoMr3KNevDUJgM9vfM18/+KnenOI2f6Kb1T8osM9mYwb3v/Td5quuLp5euza676uuLv7SdzvzUQrKqHnOqn0fOAaVb7H5N2V4Ott4rNLK7jcW8Sf7A8txlGUAPM9VWrcFH3sardp73zneOHaWLcsr8Sz/DYWPQPA/zDGCrQd442sr448agZX7efu52AyfyJjBuCmZM4M9QKRy/aPIT7Ha/No3N8Q93ItnZu520Uz1Qj7zBgfo5QhHrNr9VGSxkyvVTchm0PbOM1qbX8PltA8nI6/5wUVr7ntP0vXiNqrwj6+2v3c1y6OlIYOmM//IwBWSpzTaHNm52bzpP+C1y+yQ0VTILz7/dx5bXMD8Xy3g7l/v8MXn/575CAXJ88e/OHaOJxuLeXF/Ib98BCDEmWhg76S5Jj6KjlWn/+LYMebvr2T1fauUY71L+Fs4CIT46voIq5/O4Zc/BvgoXYBeOJ9fcp/e8Fw89jnxBYk3gJljcJS3zfH/iW3Z2aYNMG9Dxpl74a/mMRjww9JtzLt7OW4qnRmMCmfwdMHR5qNHMlfLe9tZ+16kZbSHk6Nl7r0MDG4jf2nC7qX5sd9dove2c9rXjXHA4Mh4bpK264VC8ufd4/IP8OyLDda/a3fc37EbfbwNJ7qpT3wWMxh7JyCzV0bB/aeffuKjE/+HXy34H/z1zn/z008/ZdZ7pBTTF+DyXF+0/v5MZTEeqzwTP8Vw9GmQKTN36wNLhY8AjxTzdqWLy3PNdwlfWLNvgnfvAznwiI/nitpSZuDPrHRD3zm+4jdp3x3MNJln7gnSfkAlMXOvYvUTvVzeadB0ppDrZ7cTmTXjX+OHA68AvVS/l8+nJ6o4snOmhfdxZO4Jrqd5ODl65u7nsyuvUL+pCeO9yO+3ipMvFnL9o/QV9SM7T7G6+xWaNvnH94DW/hD42im2sxpjlLJMKp/tXEN18quk6cyGcVyIzEQZf4jpp59+Gl8pBjdbfuO2yhlutuz3AW42N75lNvf9B41/dFFTWczbjSutTDk5a4fMZtg0HsN8h1DgYzXwt6/Ompm3dYMJRmrytg9FxZgfdPrbV5HPvJrXudl2xH1mmLjMbZwyzdw3WaWYvdvYOq+X0++ZD//4aDNHACNy3Nlq/L89Q9OmIzNonnvqWnKmJpa5m7OVCk90x/1+By/U8tyo/1ZHOHWhmPo3T1J19hQwL+FBefI7EPOh8WfUrallw5kG8gNHwJoPlPFrS3tzKyR/3iAD32fUncxQU/gJVfOBqsnD/Ecg1XTCxpo2M3g3vsUzSZ8OzcwzlW+xuQDzw0kH2ghSxJ7GyJTGES4f+1dzzM5jsL+S1RuL+NN5l1UuGqEXF4WRTL/cvPYZW5ZJM2UvvRRT9jLM3I1n/xGu/BsseoXBC//GEao4+atzbL/QxKfdG5jHIBfeNHs5svMcJ09Uwdnpz95TT/scRcKHtmCimbvpSHRmUmrJn4RN2JfBTSk6xqYmqviMI+8BexP62vSfVL3ZTT2DXHgzdq752hLKUiT83q6dYvuMuVHLRIz6CVUREZmd9K2QIiIOpOAuIuJACu4iIg6k4C4i4kAK7iIiDqTgLiLiQAruIiIOpOAuIuJACu4iIg6k4C4i4kAK7iIiDqTgLiLiQAruIiIOpOAuIuJAU/h97tnkxvh9Bb7cEQLH38EfHPuMsSws2ccObw5DPS0c7Rj/d8yLiEynWZm5LyzZR01dA1vXjn3sTFfTfoNLzSUp20qbL3K7PXkRNBGRsczK4L7g0ZzpvgQRkRktO2UZTxkv7fKSN9zDh1+62GG4AauEkl9BjeEGoM9fy+muyElFbK0zKIhsBv00Hg9a5RdzV4HRQM26Hj48FLANZjsv6KfxeGxNVt+uBgzb6tvx47ltfYcI9NhfQKwt/hwRkZkpy5n7ckqtQA45+Lbs46XoNhSsK2MhkBTYATwGL5X8aswRHt9iO89jREs3iYEdzJtDrD120wA3Pu/E3x2UNl/k9q0b0T+JZZea9lhbxar05x42XBO+BhF5uGU3uOfCzeO1NB7vYSjltosFwMKSoljmXR9rz1u6iG8P1UYfmPb5a2k81EZ/dIAc+L6FxvrYMXkuN3jKWOMBCOGvr6WxvpYPe0YAKHiiyNY+QuB4bdz5phD+Q+b+TLL29j3rWbxkmfXnA+4av6PGaqtpv0EFH0TbW67Ezittvshh79e8arW96g+P69crIhKR3dkyw9f5NggQNoM197kXt53AY1BTZ4xjgBFufmPObLlzbwQ8Cdn3cJg71o/931xnyOslL89lvVuwX1+a8zNV3c7tyhW2HWFC5UBrNetXhTn3elOKk0oo9rq42voy7RMbVUQkamZPhUyomUcsmGh/1juDfmDhPy03byZDYfpxJbVP/KFtNZ9UruDqsWU832Rt33pholcsIjIhMzK4R7PqhMw98WFm6geqKQTb6A56MTxujLoGYj2OEPhzJwTd3Bz24stNbI8YxwPVcjfzCRPoNTdLm19gJWC+n7hKKLwb38YSaO2gtPkiFasgPADQQejOuxSvqwaaoLrdrLlfSTOOiMgoZuZUyGAbRyN1+BQCf07flk7geAuBYfse+weeQvj/ZOtzuAe/VZMft9aXabviovig9VA0/2vORUvnHexpOg/Gu1bbx3F19cbSD7i6arf5QLX8B1499t3ErkFEHnpzChYv/Xm6L0JERCbXzMzcRUTkgSi4i4g4kIK7iIgDKbiLiDiQgruIiAMpuIuIOJCCu4iIAym4i4g4kIK7iIgDKbiLiDiQgruIiAMpuIuIOJCC+wO4fetGyr8Tf56t44nI7DUjv899NkkVcBcvWZbxeemk62Oi44nIw0WZ+wOKBFb735kG3Ng6q/F/pmo8EXl46PvcJ2g8ZZBUgXe0gJyq7UHHE5GHSxbLMkVsrTMoiGxG1kf1lPHSLi95wz18+KWLHYYbsC9nF1viLiLalvJca4Wl/Apqkvoy+XY1YHgiWyH89S0EotdnX6EpvXQZs33fZGbU2R5PRGa3LAX3hMAO4DF4qSTI0W8iO5ZTasQWpS4wKvB1tRDAw7xc4hQY+zAG3sFPqnNz8G3Zx+O5tr7WlbGwq41+EgM7mDePMu4cCjNR9qx6PGWSiT4Eneh4IvLwyEpwX1hSZAb2xGx9qY+FkeCeCzeP1+IPRm4Ec3nUAwQ7OV3fGe3LDM45zMsHBhLOxeo3advFAqDfU8YaD8Sy9ci7guU86WmLGydTkUAbCbLjMdZD08keT0QeHtmdLeMxqKkzUrcNX+fbIECQwWEoiGTrkRvBaP1Gzw0zBORxn3tx24ncGHUNpLmSjCQG2akOtNkeT0Rmt+wG90jmbucpG/UU3z+bgd2smyfX3ycmkrlPXGLmbN+eilJJtscTkdktK8G9/5vrDHm95CVk7n3+Wk4PjHIicOfeCHhyKDAaqHmQVBsgGODmsBdfbkLmHvTTeJxxPVBNNJFM+kGyb2XuIjKa7MxzD7Zx9HgPQxM4tb+jk75oP/5xB914IfyHWggMP0gfqdmz5kgWPVoATjfHPZO57hMZT0QeLprnPkGpSiL2ffbjJjpnPbGfiY4nIg8fBXcREQfS1w+IiDiQgruIiAMpuIuIOJCCu4iIAym4i4g4kIK7iIgDKbiLiDiQgruIiAMpuIuIOJCCu4iIAym4i4g4kIK7iIgDZXexjmmU7tsSM/kWxcRjJmONVH1zo4hMpewE9+hSeRmugLS2ghrDnXrlpgdg/6rc8Qb6xECduJ3uvHTjiIhMpYcic08M2qkC/HgC/ni+M12BXESmQ3aCe7CNo/VtWRkqlVSBOHHfaBl2qgCduJ5ppuOKiGRDdssywz18eKiNfvu+yDH2NpuFJfvY4c0BIotkEyvbpDknUbqFpdO1Jx47kcw9k4xdwV9Epsr0lGUSAztArpcdvyc+WOcVUerJiR5SYFTg68qgZp8gVZAeTy18KjJ3lWtEZCpNS3D3/bMZ2Id6WjjaEQKK2FpnUJC7nCc9xIJ77n26698hgBvj9xX4ct0UroVAVwuNXQ92DeMJrg9Sc3+Qc0REJmpaH6gOhUPWT530Bg0KPDnMy7cdEPzOytJD3BsCcic2jr12Hgmwk5m5p+tPRGS6TGtwz3O5ATNzL/QAjDA4AORHD2Ah0I+bR/PSdJKBdLNjMj1XRGS2mZbgHvhzD2t2ecnzVlDjtTUEO/EHiQX3XC876uwHhOidwAPVVDLN3Cf6YDTVNMtIX4uXLNNNQ0Sm1PRk7sE2jvpdZoCO7kvxgaWgHz8GhpXVB46P/2Gq3UTr3hN9MGoP5va/E/eLiEy27AT3fBdJVZXRHorGtXUmB/QJPlB90CCdqbGCtz3IK8CLyFSYU7B46c9T131klou5FZsdIyIiUyl73wo53EO7AruISFZMceYuIiLTQd/nLiLiQAruIiIOpOAuIuJACu4iIg6k4C4i4kAK7iIiDqTgLiLiQAruIiIOpOAuIuJACu4iIg6k4C4i4kAK7iIiDvRwB/fqdm7fusHtW+3UJLaVv8+lWzes9os0l8edyCfRtht8Uh1/amnzRbOt+31Kp/YViIiklJ3FOjxlvLTLS95wDx9+6WKH4cZcWekd/PkV0RWZ+vy1nO5KOAcg2EMgz4svN3JM5HviRwj4r/O44YWeFo6GizNefq+0+SKHvV/z6jE4XJnYWs0nB58i8Poy9rRiBvqD7dS0ltJICc3du+HYMhY3Wcfeukhz73r2tEJN+w0q+IBX/S9w2Js0rIhIVmQ5c19OaXRpvRx8W/bxkm2pvYJ1ZSwEoIitkcAO4PFGF/xI9Pg6b/IqTxlo37OexWtepj1FW2nzC6y88rEZ2IHSjU/hYgXrq4Hq31HMeVqarIOr17ESF76NJQA0li5jcWlTil5FRLInu2uo5sLN47X4sbLypG0XCwBKiigA27qqRWytM8x9cXLg+xYao4uATGz5vUQr812EB64CsUy85cpuyh4roRQX3PmSdmLZf4vfRUX+SqDjwQcXEZkE2c3ch6/zbRAIhhkC4D734rbjDd0LWj910htMcQAj3PxmqlZ3Wklz9w3KBl5LmYnXtN/gcP7HLF7zMlen6ApERCZqRj9QzXvUY/1URKFn1EMn1dWBMC5jN+7WZfx6TwdQgnsB3P1LB+1/CcOq3XFB357pi4jMBNkty2So/5vrDHm95HkMauqMzE9cW5HxA9XRtJ//mn8xFnExWlf/HcWu76w6+5dcrXQROm+VYMrfp2xVmMAJlWREZOaYmZl7sI2j/li5ZajHT2AYYITBgUkaIzINsnIFsIIK+9TF1pf59THMfbducLsSWpaU0ghAE8+//jW+g1bbwacIvL4+9vDVmgZ52HCBayOHb93gdnt1uqsQEZkSs2OB7EhGTgh/fQuB6b4eEZEZbkaWZdLNjhnqOafALiKSgZlZlklhqKeFox1TNTNGRMRZZkdZRkRExmXWZO4iIpI5BXcREQdScBcRcSAFdxERB1JwFxFxIAV3EREHUnAXEXEgBXcREQdScBcRcSAFdxERB8r+Atmpvmd9kr6HPca2gPbxd/CnXMVJRMS5lLmDefOpa6BmV9F0X4mIyKSYGcG9q4XG+loaJyVrn4B8F3lT1Xf5+1yKLPpx6yLN5fHNNe2RtuRFPdK3ldDcbWtL0e9o0vYbd622xUse+HVW84mt30vNJZlfrIhMSHa+FdJelvnSxQ7DDUCfv5bTXcTKMkE/jcc78e1qwPBAn98PhkGBtT/aj9Vt3NcA29uCPQTyvLayTKRME7ukyNgLS/axw5tju9hYKSdyHabIQiGxvqLXn1YJzd1vQJO5UlNp80UOe7/m1TUv0461nf9xdC3WmnZzQe5f7+kwV4pa96XVVs0nt3bDsWU8n7xWd1I/oxl1zKRrfxd3a+oxM3+dZj++ntei69Fm3q+ITFSWM/fllFqBHaDAqMA3ytF564piC3YkBHaAPG8FW9cCFLHV3ubxxgVy8DAvbhsKjH22wJ0sPrCDWccvY+Eo15usgz1rYkvwtZ//mrBrESsBqKbCgHMnogu1sn4VuLzFZrbcVGoL1k1cvALzH0ud8Wa+QPcYY8b3itsVJtT7oK9zJW7Xd7RFbx4dnOsJp30tIjI5srsSUy7cPF6LPxhZaWkuj44SYPOGOmk81AmYwTYPW7ZuZfsFTxSx0GXdBKIPZBNXcurkdH1ndMsM3DnMy4f+jndoDMe/c8BTxkseSM7Wl/Okpw3/oVr8E3j5pRufwnXlY3Mt1nI38wlzsRWzpHHwKQLHzjO/0gyK7XFnVrM+cRHu8ve5dHAjLoDweV4tzWCB7gzGLG2+aK7/CoT9r/F86wO+Tq4SCu9mfTXQZL6WCsOF68pKQIuKi0yV7Ab34et8GwQIMjgMBbmjH953rTNpX563ghpv6uOHvg9YNfuE/lNk/ZlxY9Q1YIz7vBSq2zlshGlZ0pS031yAez2N5e9zKenEEpq7dzM/MdC2vsyvbYtyH+5+H6xyj9nniuihYX9C2WWUMdv3rLduLGb55FIz0XPtgR/gaqoyUdLr7GBPUzGXDpoLjcN3nPOHmU8m7zREZKJm6Bqq6aVabm9hiTnLJe9RDxAisQzj+2czsJs18uT6e3qTtCB3NJiWWtks0Bri7sGNVJSf59UlVlAuXIQr/IMt7CXWq1Nr3/MxFbfWxTL+plIWp6pnZzRmRAd7Wn/H7XWxDDsW+MfxOiHuRgRmnd/9pbJ2kak0a4J74FoIw+NOyNyth5/fXGfI6yXPY1BTl5xn37k3Ap4cCowGakZLwz0GNXVFBI7/X24Oe/HlJmTuQT+Nx4PjeKAayXbDyQGPJi5e2c38gXOxTLl8BeGeP1jb5kPU+YlZd8oxXmBl+GtaRr+UDMa0i7VlIv3rTD6uYsF5XtXDVJEpNTOmQmaiq4VGf5oFsoNttPeMRDeHevwEhmPN/R2d9EWP9Sd/qKnrXNzxEMJ/qCVh30SY9WVYQUWKqYCNpa8R8L5r7Y/P0EubX2Al4DLetU15bKcGkqYsHs7/mMWRkswYRh/zom0sc0bLWDeWTF6nvd/xXKuITJwWyBYRcaDZk7mLiEjGFNxFRBxIwV1ExIEU3EVEHEjBXUTEgRTcRUQcSMFdRMSBFNxFRBxIwV1ExIEU3EVEHEjBXUTEgRTcRUQcSMFdRMSBZu73uScsmi0iIplT5i4i4kCODO417Tdsi07c4JPqUdrb4xvjFqzofp/SLF63iMhkyVpZxrerAcMT2bKWxwsWsbXOoIDE/Ylnu8e1tF1j6bLYUm/V7dwuf5/SJnP1n9Lmi1TwAYutBZxr2m9wqfmqueJQdTuHvV9H1xctbb7I4fZq2ku1JpyIzC5ZydwXluyzBXYbj4u8uB05+HZV4JvEsUsfc8GdUHRd0goDzp2IBOtq1q8Cl7eYUmvN0KutL0fXFy32umDVOnNpOxGRWSS7D1SHe/jwUBv90R1tHK1vs36OZOdzeTTpRhDCf6gWf8YDmYtLrwTgO1qsLJ1yN/MJc7EVcx3Sg08ROHae+ZWLWMlK3K4wod7Y+Rz7gKuVL+AuB1on9pJFRKZDVoJ7f0cnfV6DglwvO+q8QAh/fQuByIyYSdfE85GAXt3O7VvtsKQ0vlRTCS1L1tNY/j6X7KcWvs+lW08ReH0Ze1qr+aRyCi5PRGSKZemBaien62tprG8hMAzgZk3Jaox1bsw6ey2N9X76pmLopj9wLuyysu8Qd1lBRfkPvBoJ9oWLcIV/4CpXCYVdFFcuom3Jeva0Es30Q8raRWSWyUrmvrBkHzu8OXH7hsKXuffoC5Cbg29Xwxh19vE9UI1T/TuKXWFaWgGauHhlN/MHzkXr6s3lKwj3/IF2OqDnDYrzv4xm+DU7N+K68kEs4xcRmSWm5UNMQz0tZoAe6GHNLi95wFCPn5tLDXy5D9q7vd4OhM9HZ78ANJa+hrv7XW7fetds9r9mzpQB2vesZ2X7DW7f2m0efOUDFmumjIjMQnMKFi/9ebovQkREJpcjP8QkIvKwU3AXEXEgBXcREQdScBcRcSAFdxERB1JwFxFxIAV3EREHUnAXEXEgBXcREQdScBcRcSAFdxERB1JwFxFxIAV3EREHyvJX/iYuiG1+/e/RjpC54SnjJesrgE2JC2bbz09eTNu+CHfke9/jvks+6KfxeGfsBPt4SUsAiojMXtnL3D1lvJQQ2OOsraAmLrCDuWB2A1vXpjohh8f/yb5EXxGFqRbhjruGFXGLgiz8p+UJ44mIOEOWMnc3xpZUGXIRRon599bIWqq27DqSiRcYFfi6WghEuhseYSg3h7ylPhYSMvtauyL9jQMYGh4hL9dN4VoIdJnX9OTSnFHOyFD5+1w6uBEXAGHOvW4t0SciMo2yk7mvLbZWWArhjyt9dOLvCNkCcwi/rWwSOB5ZV9UMylG59xkKArnLedLK1n1PuIEQfbYyTZyh+wwBBU8UmdseH4/nwlAwxFDcgUVsrWugpm5ftMSTXjWfHDQX0168ZBmLX/8a38F2asY6TURkimUluC90zTV/CH4Xy74zag8yOGz+lOdyx7X0XgsRK81YJZngd/Smu4h733FzmGhpxizJjHDzWngiLwmA0uYXWHnl45ZR8ikAAAURSURBVGimXrrxKVysYH31hLsUEZkU07KG6kQMhUOALZUeCDOE2yzNeCAP6LvWCU8YaXoIcm8IsEozPJoDwz18OwCPxx3Xyen6zpQ9JFqZ7yI8cBWAmvYbVPABLVd2U/ZYCdAxzlcoIjJ5spK594fvmz8kPNAcu93DvHQLZgcDZiae6+JJKwsfHBj9OgLXzFk5ea4yM9MfCk/C7JiVNHffoGzgNS2mLSIzRnZq7l3fRWvnxq4iW0MRRok7bbtvlzW7ZriHz7sSOw3x7fcjgBufNweGr/Ntunp7wnXkeb0UYGX6D+DqQBiXsRt36zJ+vacDKMG9AO7+RVm7iEyvLJVlOvm8p4gCbw54DGrqYqWToZ4WoJPT/hXUGO6kdoC+L1PPP+//5jpDXnMWztD3AfqBBWNcR2/QoMADEKK3i7hKjykylz55Hn2i9vNf8y/GIi5GEvbq31Hs+o4WJfAiMs2yNs+9v+MdGv2hpP1mLR3oaqHxeE/CzJUQ/nrzw0gpRUozjHDzm+S+U4mUZtI93B2X1pf59TGouHWD27ducLsSWpaU0vig/YqIPKA5BYuX/jzdFyEiIpNL3y0jIuJACu4iIg6k4C4i4kAK7iIiDqTgLiLiQAruIiIOpOAuIuJACu4iIg6k4C4i4kAK7iIiDqTgLiLiQAruIiIOpOAuIuJA07TMnhvj9xX4csf+znQRERk/h2TuRWyta6Dm92UsnO5LERGZAZwR3D0u8qb1Akpo7jYX7LjUXJLUWtNuLeZx6wa326un4fpE5GGTvbKMp4yXdplL4hHsSbEKUmR5O0vQT+PxTuJLOJ3Ms62r+uGhNvrXVpjL8wHketlR56XPX0vvEw0YHujztzC4rgJfru0ca4iFJfvY4c2JXsFQTwtHO0K2MaHPP8pKUABU88mt3XDsNc6Vv5u0AHhp80Uq+IDFS8y192rab3Cp+aq15qqIyNTIUuZexNZIYAfweM1ga2+3B3YAj8FLJe64Xh7fYjsm10tpQnsqeev+d2ws2zmJgR0gz1uRNObYmnh+yTKeT7luajUVBpw7EV1klfWrwOUtpnSco4iIjEdWgvvCkqJYtl1fS2O9n75U7UE/jfW10bVU85b6bDX0HPi+xWy31mLNW+pjoX3tVat/e6adN9RJY30tH/aMmNuPeoAi/qc3BxghcLw2uU9C+A+Z+0fP2sdQ7mY+YUKtQPn7XLr1AqFj5wm7FrHyAboVERlLVmvuQ98HrJJIkMHhFAd4DGrqGqixZ/lRtkWwB8IJC2mn13etE4D+8P0Urfe5F5mp0/WdecPJdbEgw74zVt3O7YOLaFuynj29k925iEiyrE6FNLPmEOBhXm6KA6J1djs3TwKQw7x8IAjkT9YD1Lk86rH6XLvCencR5s6k9A20hrh7cCMV5ed5dcnLtAMULsIV/oGrkzWGiEgKWQnu/d9cZ8jrJc9jUFNnZNye+DCzwGigxnZ67J2Axf5AddQr6uTzniIKvDn4djXEPQTt+7KN/nE9UB1NExev7Gb+wDkzsFNCc/kKwj1/sLZFRKZGdsoywTbarZo3wFCPn8BwfPvRSN08rRECftsxQb81s8U8v3ucH4Tq70j+8NTEAnlkGuS7FLvAZbzL7Vs3+MSa8dhY+hoB77vWVMh38fW8ppkyIjLl5hQsXvrzdF/E6PRpVhGR8XLGh5hERCSOgruIiAPNgrKMiIiMlzJ3EREHUnAXEXEgBXcREQf6/38ZjdmGCfsFAAAAAElFTkSuQmCC;" vertex="1" parent="1">
                    <mxGeometry x="190" y="13" width="318.08" height="190" as="geometry"/>
                </mxCell>
                <mxCell id="34" value="" style="shape=image;verticalLabelPosition=bottom;labelBackgroundColor=default;verticalAlign=top;aspect=fixed;imageAspect=0;image=data:image/png,iVBORw0KGgoAAAANSUhEUgAAAX0AAACnCAYAAAD9q4ysAAAgAElEQVR4nO3dX2grWX4n8O9km10SNts76ZT74rX3XrvHucHCDbZZ37XZMM0OSHq4tizoWcjAkAZZBsV0MPbDVqv7scetfZAxO+sILAt66SUP6Qa5bD/Iggmz9CBzHWyTETK5ce6fjhzH7ZpJ9mYmmaRhyD7Uv1OlklySJdvX9f3AhSvLUtU5qvrVOb9T1u9r/y62/i8gIiJf+JXr3gEiIro6DPpERD7CoE9E5CMM+kREPsKgT0TkI1ca9L/9+9/Bi/UY/uL332jq9198MNbgt97AJ2nHe7493dR2iIj84pX2v+Ub+CT9FqZe1R8+f47Nr9+zHgN4feQtvFh/S3vw4jlmFn+AT13e6dPDL/G9kXt4/V43PgTwQZ0tbn5Wxr3YW3ixPoTvz2zU/T0iIr9zDfr/9t/8K3zjN3+17ovOfvYVzv7+q8bv/LyM72MI7wqPX/1wz/YrH34Qw7tfNx6N4fP1Ibzp+mav4d31mPVeAL48+CF+6w+fAHiCT3ef4NPdPe391qeBQuNdIyLyK9eg/9//63/Ef+n793VfdPb3X+F3/0+lM3vUYORfS7tQoJDD73wGfPBhDh9ASwsREVEt15z+k5/8U8MX/dnf/LyljX34QUzL0V+YpzeM4XPH72rv8R18Mg5g/Kf4n4Wf4s1wDC/S38K3Ha/+8vxJS/tJRHRbuQb9j//0b/DkJ79wfcE/fPVL/K8fnbS+xedlfP95o1/4dfxB2gj0e/i/zwHoOX1gDN+8B+DFl9jcBbD7BJ9+toFXZ36ITdzDukvgJyIiS92F3NSf/BWy/+1+7c9/8AV+/s+/7OAu/RpefxXAq9/AJ+N72PzbXwD3XsM33wbw17+O1wHg736GT50LxgCAe1hfj5mP3gzH8CJsPWutAxAR+VPdoP+XP/lH/O8/PcPv/ac75s9+9Oz/4UfPXnR2j/7uL/Fbu914EX4NU98aw3d/oN3B8+Zvj+HbXa/jdQA//nNtQfi7iy4B/O1pvAi/1uTaABGRPzS8T19M8/zDV7/E//iTv/L+zveG8O69Jn4+ro3iv/zbnwKflbH5AlpaZ/c5Hun//4Pf+FUAv8Dzv6630Tfwyfhr2n9fvYf19Wk9LURERICHP86aV44xv3GMmT/+8+bSOvVy98/LeHUmV3P7Jv6DHvTPtdswN5/8AsBr+ObbT/DdxRxenTkFxHx+jTF8vq6le35cyGHmQHv9u+sxfP62990mIrrNLvzjrJ//8y/xZ6fN3K3zREi77OEDvIFP0trQ3rilUvMG7n7d+r82QrdG8Z/+4R/ZUzNvd+NNAF8+ee5I2Qi5fVtK54+svH84hhe/Xft3AkREftOBv8i9iP2PsH5c0IL0p5/dw19862fYHP4OXsTq/2GY8de8Xx78EH/8G29pqaIXzzEz45a/1y9Ab0/jRXgIn7+9h9/5rCONIiJ6KXyNlbOIiPyD37JJROQjDPpERD7CoE9E5CMM+kREPsKgT0TkI6/8yiv/+rr3gYiIrsgrr73xn697H4iI6Ip87V7fN3ifPhGRTzCnT0TkIwz6REQ+wqBPROQjDPpERD7CoE9E5CMM+kREPsKgT0TkI7c/6EdXsfdUQfK694OI6AbobNCXFTx7tIqI8KOkcoy9zKQejI/xzPnv0SoikLHt9pwRvF1euy2770IkOAzsrGNJ/FmmJGyrqQaZ+1Vve+4mkXlk7eteZtK+j8b+uO2Tra0lZKJN7TARkc31jfTzcxjrH0Bf/wCyZUDdWUBf/wD6HsxBQQoP9efmd1SgnNOe648IwfsIWf13+taOEJh1C4gy4iFgv7hl/iSpHGOle1N732ZEV7H3dArVxRwqTTY1knkPowd6+xaLQOg9a19lBSsjh5g32nswjBXFuKLI2E4PY39Rb+fiIUbTnLUQUetuR3ontYsKJPTed/xcHkegvIlE3vrRUmQAfZFU89vIz2Gsf8L2Xl4piQmMJfQLT76AfdXY10lkooOo5OegQHscHpGAoXEkAUQyU7b9jwSHIWEQE03NMoiILJ0P+lIQK0IaJj7UgW3I4wjgCCVbLJ9EJiqh8HELAb6TomGMSsa+BtArqag+BrTU0TJ68zntAhYFAt0S1FNtXmHMULJloOvuZIMNEBHV1/mgrxbN1IWRymmPQcSNi8kskLWlfgDIMwjjEIUWRuadI2M7HcT5mmNf7xupowE8rLlGBZB5dIzp04XWZihERIJXrnsHWndUG+gFyfFBVPIRPW1yE8jYfhoD1sTAXkFVjSE824Ns/4TWlmgvuqCilAcqQRXxUAy9awMYSwHAJHrvAOe7W/U2QkTU0O3I6TtFVzF9p4hsSwNj406bNi6YRlexVxPwAWALhQMVKO+aF6/kO0FI+mOleAhVTFvJMwhLzjQWEZF3tzLoJ98JAgcF11G+cXvkSkiy1hsULyujxu2aMQQABGa930KZfCcIyXyN/dZMJTGBLGLWmgdyVhonP4exNTROYxERNeH2FVGJrmIv3YMNBkciohq3L+gTEVFdtzK9Q0RE7hj0iYh8hEGfiMhHGPSJiHyEQZ+IyEcY9ImIfIRBn4jIRxj0iYh8hEGfiMhHGPSJiHyEQZ+IyEcY9ImIfIRBn9pHVqyvjq7zddVJpc21Cjzo7Da1+gvbLs29jrY2K6kcYy/D8psA9LoXxtefe/va9JfRlQR97eC3/rmdIM2Tsd2JD0ZWzO+698r4jn7nP9+dTKkI+voHML+jXulmI5mSx5oIHRANYxStFuwhVy2cg140Pk4mkZGDOF8zSrtOIOGl1Ko40PFcm+N6dbhc4iQyj5YRRhHz/XM3qHRheymJCb1tMrafTqG66PGA8aGlyMCV1zno5Da1gj0Lrsf2dbSVWhVAr6Si+riZ18jYngWy/cbnPInMo/eQiaZu9Pnf2ZF+NIxR6QjZB/UCvlGa0F5NCtCuynuZVb1alX2arM0cYghAQjhd+7xV5ap2xJ1UjrGdEaZx5jb118wOWhW12nHljq5izzEjiWRK5na1dspCPzhmL7Ypp8ssSR9pNDd7svePre+iq9h7tIqkMHux+k/G9lMFSQ9pHPd+qP2cLY2PBdcZlP6eKyEJGIrVfb7uNh2jNKsPtXZmXPvA3o8TQ0fYSGzVfc+a7Tqet72v47P2dtw6+q/JvtWErePB9lyD4wSTyDwqISPX2SdHW5zHiW3235Zz0DnzFx43PE7EinhCPPG0zQqq6iDixu/KMwhLKqo3OOADnQ7693sgqSeouD6pzQJGDxb06dQAsmdBrAidLYWCgD7dypYHMa2fBEuRAfT151CBisKiMR2LCFfbKVTNny9gf+Q9WyANhIaxv6g9V0AQcRkAUnjYP4C+tSNALWJe3yezdGGr8nPYKEsYDRon8CTCIxIqeetCKIVi6M0P6KkRIPyO0QcyttM92DD2pT8HzLYjR6y3td/YpmT2rbZDQcS7N7XnF4tAaEbY5iDi0RO9f3KoDE15S7Hl5zBm9G8NfUZ4ljP3qU8YKCiJCevn/TmcG/ujv+f8jgqUrdeOGUG40TZlRS8/OWC2s2tWDBqDCI8cau2s6QNNJDOFrp11+2heT3EZ72lPdE0iE5WEY1bY1+gq9tLGcWm0c9l2MXc/bi/SuG8BQAoN6+eL830vOE4gIRwFvtdf+9rkO2KqxH4eRTIlTJ9a5/38wTDez0ziwnPQeUH1mntveJwYbXTEE0/n/RYSDwascqfRE8y/BBX7Ohr0I3elBs8G0CvZR0lLu0fAnV5rtFDOmYXEK6cqpO7AxRuNhjEqiTOAZYQlCb33rV9Rdz7Sp19bqJ4BXXe95d6dI06vo+ulj4vASFhrl1sOWGinUjyEavSBPI4ABq0aufpopFc8yPUg87Cpa5N95LcSkhx9e4SsWae3gH1V3KaKQsoIGimUyva+bYkxI6x3otlOdpc+aEHkrgRVDNhGO822CO3MV3Fes00Z8RCwX9yCd1uonmnHZs3M4X4PpPKmkBZIoVS2H5uNj1stADkD+oV92/B9LzpOIAxetO2L52tg1m3ErA16pNByw/d1JV5QzX+dT6XWP++1/okjZw1ab/jCPdDhnL7yhYqVUA8CwNXm89Ui5uumlFpn5e6blC9gX17WRkF3h4GDj7y/Tzl3+dmGQyTznm2dJZIpYaW7rZtoIxnbs4OorBkBRVs3uXbyOALlTTxsMuAYeX4tkCx35PNtl8scJ+a5ol+w7eekikIr616yoqV+bFp8rybUPe/N9LX2+S1FFtD7aBkTMoCb+ZEC6HR6J7WOgpjzstHyYdZ0cRKZ6CDUg4LHgFhBVXUZZearOJeC+nSxBY9PoErahap9tpDIHyEwriAeUu05YAdtYVDvg8cnUIdijWcULeT0A90ScFY1F5/joQYzMnkGYRyi4HZSRVcxPXSE0mUP8HwB+7ZjQdxGL7pgLbBFMlM1n43yhWqfIXqgfKFCElM28gzCkte26Gmaj1tvuJKY0NI/xn4/PoEqpsqiq5geUpuaSbjeItqoby/Q1HFSTyqipU7Mc0qf7cgN7s6pdw5eONK34kFSibXlOLmYOAMMoLeFLrpqHb5lcwuJBwso3Im5TI+2kHig5S3NNMxZzspxennv/JE2hbQtMqXwcLEICNPHpu6Vzs9hoyykVNp1C1ZqF5WhQQTKu7U5P2FxKY6cPSe9Jrax3kJdc5Y+LkI1tzmF6o4z5y20fxaOhXghdZYexv6ilcM0psG2BTNzkUtP0YiLdGZbnMeC8Jy+JmJsc6X7EAXnHaGpdRRgLfyZqZNG20xFML8jCe2UUFj0mI9tdCFs/EL7wmh6GPtmCmkOY2uq0LdBnK81N4KtnKoABrWRpqlB317g4uOkHsfC8dMYsGb17VJkwfZ51QxaWjoHU8juqOa5Mn2a836ctMr5mT2NoWtnoclU69X72r2+b/zLde+EP8jYfhoD1uz5d23KvHlzpvjRVeyle7DhuiDFW1KNhdHevId1FFnRFvc6kGqsu71ZIPsSLCbS9enwffpkiGSmEFCLmL8hsZ1atYXEA2+z0eT4IHC2ewUBX79DR9Ly2wz41AiDfqeZi09HyN7iP1AjTVI5RnxIf6AWMf/gKq7y3i9EREzvEBH5CL9wjYjIRxj0iYh8hEGfiMhHGPSJiHyEQZ+IyEcY9ImIfIRBn4jIRxj0iYh8hEGfiMhHGPSJiHyEQf+WSipt+OpYIrp1riTo24ogN1nwoz5nIeQ2kZWWvrM+kim177v3PdO+t7w9/emRreC1sxC1s35pG+sREFFbdDjo6zUk7whFjpuu50o3xyQyslW8e34HQgUkexFtrZg9oJ5WrnmfiUjU2aBv1pCs95XCjgo7wgg7kilhL7MqjB6t6lfazEErkG1VrRGrY9lHnWKaI6kcYzsjjFbNbeqvEasstXGkapvteGyntltKzeh5LzNp1lgNSxAqazlnPmHrfWtmL3rfNzWr2ULigVVARSke1i8tqZdSbFQakoiuXmeD/v0eSOoJ3Md6WuGH0YMFa2R4FsSKEGSlUBBYM0aNVp3PpciAVncTKgqLxsjSqBY0icyjKVTNny9gf+Q9WzAMhIzRqla2LS4D5kh17Uj7HnRjxNqGilaRTAnTp1Y75w+GbTV867UT0VXszUpmG+d3VKCslVNUEhPa/qtAZc2tXigghYb1fhDb2T6R4DAkt/KP0Gv97qyzoAfRDdPRoB+526hKcAC9kn0kuLR7ZC9cXM6ZqaDKqQqp20O58mgYo5I4A1hGWLIXUFd3PtKD4xaqZ0DXXW8LnkYN2ObWJiYRHpEgCTVKV0KSvS3NtLOJws6N27mFxIMB9LVayk9WsBJSkXW7KHKUT3RjdbRylvKFipWQNv2/0opRarEjdUmVxESL76mVsWu6rmy+gH05qF3A0sCNqb7VsBbrJDJyENhZ4Cif6AbqbHontY6COoi4a168gqoqpDIwiUx0EOpBwWNQq6Cq2kfwAIB8FedS0JY+acrjk/p56pZsoXomCQueTZBnED7LCYujziDb3EzFrpWcvj7baVR8W55BWOIon+im6vDdO1tIPFhA4U7MJS2yhcSDHM7NtMcywmdavtrze+ePhEVMYwE0hYeLRUBIp9QsjjaSn8NGeRDxVhZyh9zaCSxFtJz6SrOpodR6Td8527L0sdjWDtzCaiMjHpIACP1jWyjXL9zM5RPdWKyRe5PJCp5FT4RUlbX47f3iSERk4V/k3mC1C+EB9ErA+RcM+ETUGo70bzRtZB8WYr+6w1E+EbWOQZ+IyEeY3iEi8hEGfSIiH2HQJyLyEQZ9IiIfYdAnIvIRBn0iIh9h0Cci8hEGfSIiH2HQJyLyEQZ9IiIfYdAnIvKRzgb9mqLeTX7fu6w0XeTjsmwFzD2XROwgWx/av0v/cvtqFKVvotbAJdn211mnICoUq3ceJ42ecx5jzdQ/aHWbl2knZLNYfTOfl7NUZ/1+aOHzdO1D/fgQ9l9rl/b+zmPvxpwvdKHOj/TFIuNrKsLpThf6aF0kU0IcYqWqAbN27fWQsT0LZPutouliFTKtQLzRt0cIRJu4QEbDGD3LIVsexMRVnKiyIvRtDpWhmBAgZGynjWL1A+hbPMRo2ghek8jI1nPzO7BXIUtFhM8rh8rQlMfj6xLbbLWd0VXsPZ1CdTGHisdusymLx6ZVfjOSKWl1F9aOmn5LqxKacCyZdY+PUMG43icyJnBk7rd57C0WoeLIfP31ni/kxdWmd1IRZMsSRoN6pSXbaEos3aePhmYHAUmoOCWOmhyvrRlh6KOXZkYege4Ghdyjq9gTR1G2xzK2nyrICKOxvVbLNdqk8FAoS1hTOF4QuSsBZ1XP9XMjwWGc76awtHuEwLijXx+tIlmnLUnlGNuyNVr1PLJMRYRgkkKpbJV5jGSmEChvWkEsOAwJxsVoC4kHVoBTiof1y1lGe9EFFVUPtYgvv029D5wj+QbtRH4OY/0X1Epu4bhVEhMtFrjXKqFV1txKX2q1G0q70PpEHgd2d5veAt08V57Tr5yqkLr10yc/hzFhhJE9CyIuA1qw00avtpmCeTLJ2E73YEMY4WH28mmKpYg2MmstaA8iPHKo7etiEQjNtD1tkhx31hC2gu9KSEU24nWYNYnwiIpSCkBqF5Whcfu+SkHEuzfNkZyzLYHZcZSE2cd0030lY2JIxX5RqwsQ6JagnmpjyKRyjJXuTWTL7rV/I8FhSOVdW5AyUw3pIM5dA1ity26zlXZemliOs5k0Vj3RXnThSDsOhGPJllJN7QLjMpLjQCml16W+oTN18uaaF3LFEeMx4kMei3zL4wjY6rTGEIDjYNSn/c1NN/WLTf8C9keWmxxxqSik9NFWvopz5/5cUiRTQvxOEd+zFVAx9ncAfWtA3OuoW55BGCf6VD2FUk2K58i6gOQL2Hec6GIN3KXIQJNFXSaReRRD185HjhFvAJlHx5g+XRAu7s79VlwvblaaKwfMNvOZtb5Ns+/rXmjrtfMCdY5bJTHhSGPF2jSbNDdsDbQcP8+eTmH6lHWPb4srD/r2EVYMASFPmS038UZle+6976Jpc1O2kHjQQp68QyKZElZGDoVauS5S6yh4HIUlx+1ps/gQ7CmejnGv8Vs5VSGFYujNGxeQSfTecZSFlBU999xoJJ9Cdkf1NHBo3za9t7N9tLTRpTUanER70aVqAwMlMcFqbbfIlQb9SKaE+NARNoSTzLgAILqK6SHHCx6fuOdvH59AtS0EumghN1qzvzU1ao0TZBIZOYgGKwBuO6TNapq8GympHF8c8AFt9C55yWdrKYfC4oBj5DjuPkuQZxDGIQqXvqDK2H7qHgiV4iFUM81gtMV6bC02XhR8tRy1lxrCl99mnZx+g3Z64uW4ja5iui1poxRKZcn7IjXdCp0P+sKIcmXkEPPmSbSFRP4IUmhZz8f2YH9Htb82P4eNspDGMU6w/BzG1o4QmHVbBG6VcQuj9c8WbPNz2ChLCKeP8ezpMnrzzd6BUUFVBVBvEdKNcSEUF7PNgGBPjT2Lngh924A8joDqDOIVVFUxNy/0+SyQbWmR0C6SmUIAsD5vcRE4P4exNdi3abZFC+S2fRLWXOy3Dk6huugxpXeJbbbcTvMziyEA6Mevt7vZbLdspoexvyjMbI1bLmcHrX32eD4sRbS1NPP4mh284IYACb33Pbwx3ViskXuFPKVprlt0FXvpHmw0ndIgopcB/yL3Kui3l974gE9Et94r170DvpCfw1jbFpmJiFrH9A4RkY8wvUNE5CMM+kREPsKgT0TkIwz6REQ+wqBPROQjDPpERD7CoE9E5CMM+kREPsKgT0TkIwz6REQ+wqAvEuvu1vtq2jZ8T//V0b8u+tJfO01Et0WHg76MbfH7wvWgev0Bs05BE6Nmb03JuJtKC+rX358eyUprFyDxYuzy/fO279RvR+1YolvsCkf6WrWp87Vm69Z2gDyOrp0cChhGuNk6ti3V3r0uetnHl/rrnCeRkYexr1f6mt+BrdJTJFNCHELJTbS7dizR7XJlQT+paCXknMHSNkpzjAJt1YLEot/RVew9WkVSeL6ZEz05LmG/mELhABgNen2dWFnLPtqMZEo1+55U7PvUqJ2tpGG0vllGWIJQQUzYL6OaUs3oV8b2UwUZve+2ZaOak6N/ayp1uT/nbKP7Y30bs/bavN5G5VtIPLCqRCnFQ6GEpox4CCh8bNY8xMQQII2Emc4iquNqgn5QQRy5mpqhkUwJ06cL5iht/mAY7xtBQ1aw0r1p1XFdA+JikJCCiBvPLxaB0Ix7jdcaMibuaOUCleIh4DlA6KPm/toyiUpiExVJnDVodWiNGqYN29kiJTGBvv4FFFSgsuZSHF6fkcw7S1ACAAYR7t7E/I6KwOwUqos5VMz6vzK20z3YEOrnYla/IERXsZe2Rt19/Tmch5Y9pJdSeGikzdQi5o33jujBWrxANUjjAEAkOAypvKtV9Yr2ogt6XeDoKvaeTqG6VnSvq0xEAK4k6EsIhwZdfj6J8IhkqyW6EpIgdWuna3J8EBiKWUFgdhC40ysE6CNkjaCRL2BfNYIWaoKIOPqMZKYQMGqA5gvYbyXFUyOF7I4wa5DHEShv6gG4cTs1V52GUa3RsbmfsPbdVhs2hoBxQbjfA8n2+ymUykDX3UumU/QLlP3fhH2/AG0gEFKtz134+bN0Dzb6J5B4fLldIbrtrqBylorC4keAvIy9TMUx2ldRWHQ5uXWVVvP/qQj6XF+nBWBIMTx7GrP2IjgJ5LfcXuCZUjzE+3IYEWwhMD6Iyq44f2jczhunnLNG4aJOrZHKil7UW+ToM1lxFC8HkK/iPB1EPFrEfL9+wbzfA0k9abJoPZF/XFFOfwuJB85UwBaqZ5JtUU5UOVURmFW8pWzkGYShpWwaioYxKh0hK44oF4tNpHgayM9h42wY4aiMiTtFZM2Y2bidmlZvrdxC9awNI23R4xOoQzH3lM3jE6hDU7a7saaFNBYAawYjK4gPubzeLfVywUg/kinVBnzthSiVAfWgoM+QJpGJDgqPicjpCu/eSeHhYhFds1a6ZSmygAKEhT1h0VBJTCBbFtMMzsVa4blZIOshNWLLBxvyVZxLQcRlWGkhccHRDMTGgqeW7gina/POS7sqwukYkLfvS6N2XtbSx0XATB1Z+2Msgq+EJCtN5mXhND+HsbUjYXFY6IP8HMbWVL3tx3iWDuJ8zQrOSx8XoRrbip4g61xPyM9hQ/xMPS3kyoiHJNg+76f2Y2h/xGi/drOAc+2IiCwvZ43c6Cr20j3YqBn5ERFRI/yLXCIiH2HQJyLykZczvUNERC3hSJ+IyEcY9ImIfIRBn4jIRxj0iYh8hEGfiMhHGPSJiHyEQZ+IyEcY9ImIfIRBn4jIRxj0iYh8hEG/WfrXL7frq5Fbp30H//Xvh0dibd16dQNuTN8S3V5XEvRtRcFv+kktKy0UM6EL5ecwZtTJJaJr0+FyiZPIPFpGGEI5u5dd3VKMdGnsW6KO6+xI3yhPWLeqlV4m0GXaH8mUsJdZ1atVHePZU6F0YnQVe49WkVHqzR5k4XXOiluoKZyuvVZ/jVg1y1bdSdxXe8Usc5/qbDOpHGM70yi90Wq5RItRKcu5Xbe+FX+/Xt8mhedr+q8eRx94b0/9vo1kSjXvk1S8t5OI7Dob9BsWqdZmAaMHC2Zd1OxZECtCCT0pFATW9OfKg5gWg48URBg57bVrRwhEjZN9EplHU6guGrVWF7A/8p4VSGQFz2YlFBateqxa8fUUHhrpB7WIeaNWq1kgfAuJBwPo68/Vtie6ir30MPbN93TWAwYCIeN5rXRivI0prkimhJWRQ8z3D5ilAiOZEqZPrb6dPxjG+0b/yQpWujeterRrQFwsXSgFETeeXywCoRlvtYqNFI7weXprZ/2+VRKbqEjDCJsXAhkTQl3ehu0kohodDfqRu1KDZwPolY6wIdQzXdo9Au70WiO1ck4PyFqhdLPoNgDgCFkjIIsFt6NhjEqSVcf16TLCkoTe+9qvJscHoe58ZNZ1bYv7PZDKm8J7agW7xYLl1jbdipnrQc9DnV+nwOyxFsBtr51EeESCZNbO1WrlGv2XHB+06uYasxux38W+zRewr0roFS+adWdR9hlWfKgdRdtTyO4Ao0HjgjWOgNnXjdtJRLU6mtNXvlCxEtKC8ZXm89Ui5lsIoC+jytoCqtFl7GUqjoLgKgqLE3UvbpW1AfOC2pQGefekEkOgnDNnR0nlGNMtbMJJKR7ifTmMCLYQGB9EZVdM4DRuJxHZdTa9k1pHQR20pw5MFVRVMWUziUx0EOpB4XLBOl/FuRSsO8Vf2j2C1ChdIc4avHp8AnVoykohRVcxLaQgLnaZnP4WEg+c6aQtVM8khGX396ucqgjMKt5SNvIMwjhE4cKgOoneO4B6qidooquYHvLYhIvk57BxNoxwVMbEnSKy5kWncTuJqFaHb9ncQuLBAgp3YqhdOLWClajBRKcAAADOSURBVJmGOcs5RqutSOHhYhEQpvy2hcpUBPM7EuL1biHNz2GjPGg9b16wjNRFDAEY6SN90TE/h7E11UoppYM4X7vK0afW5q5Za3+XItrawYpLO5XEBLJiG2vSNMJzs2iwEC/aQiJ/ZKVa0j3Y31Gtp420kLhQbl7kGvStbmlXRTgdA/L2fWnUTiKqxRq5ZBddxV66Bxv9ESxd974QUdvxL3KJiHyEQZ+IyEeY3iEi8hGO9ImIfIRBn4jIRxj0iYh8hEGfiMhHGPSJiHzk/wPNWKre1MVDJwAAAABJRU5ErkJggg==;" vertex="1" parent="1">
                    <mxGeometry x="560" y="24.5" width="381" height="167" as="geometry"/>
                </mxCell>
                <mxCell id="35" value="" style="shape=image;verticalLabelPosition=bottom;labelBackgroundColor=default;verticalAlign=top;aspect=fixed;imageAspect=0;image=data:image/png,iVBORw0KGgoAAAANSUhEUgAAAS4AAABSCAYAAADq1zlNAAATR0lEQVR4nO2dfUxc15mHH3s9i5k/sLGHOJASAgbZyDamXFq8cWobWw6VE0B2pUylxrKtqCjBWjmqaWW1aSyibFulcZRoa6dKtCJWbEUTZXGBFC1kE9IkJqE17QTshXQwCGM+XAYYbHUGa1J1/4B7uXc+8PAxM77J+0iI+3Huveeej9953/ecmVmmKMo/EYS7hPb29nhnYdEoihLvLHzlWR7vDAiCIMwXES5BEEyHCJcgCKZDhEsQBNMhwiV87dm7dy+XLl1i79698c6KECHL4jmraLPZKC0tpaGhAbfbjd1uJz09PSidz+fD4XDgdrsByMnJoaioiNraWrxeb9B+rMnJyaG4uJja2lotj5Fcs2XLFmpra7X9oqIinE4nO3fupLm5GZfLFdU879u3D4vFoh0bGRnBYrGwdu3akNe0tLRw8+ZNraxzc3PJzs7G4XAsqAxCsVSzis3NzVy8eJHq6uqI0r/xxhukpaXx8MMPL/rZ85lVDOwDJSUluN1u2tvbKSkp0co3VJna7XZ6enpob2/HarVit9uD6q6lpcVQpmq9j4yM4PF42LJlS9B9BwYGcDgcIfMbr74W2F9WxOzJERCusAKZmJgAoLKyUutM8cJqtfLQQw+RlJTE4cOHDec6OztpamoypA1sXFVVVfj9fj7//HMAent7GRkZ4cCBAwBREy+Xy8Urr7wCTHeeAwcO0NbWpj0vXAPNyckJeb+CgoKQZRDYcWKBajn97ne/C3n+jTfeYN++fSHP/e1vfzPsNzY2Br3TUpKRkYHX69WEafXq1dp2U1MT7e3t2O12PvvssznL0ev1UlNTYzhmt9sN2+np6fh8Ps6fP6+JZChhCyVmKi6Xi4KCAr7zne8Y2na0cblcZGVlYbfbcTgcrNi1axcffvhhyMS7du1iaGiIv/71r0uekaNHj5KYmAjA4cOH51R5PSUlJaxevZpz586hKAp5eXn86U9/WvL8RYIqRB0dHYbKVxSFbdu2BTU0feMKHEFsNhvr1q0DwO1289prr0U9/2o+gSALLykpidHR0YhGVUVRsFqtjIyMMDo6GrMGffLkSY4ePQrAtWvXeOutt3j66adJSEgA4L333tPSXrt2jSeeeEIbIKItSJGSnZ1NT08PMN2eAPr7+7Xzbreb06dPa/uBg196ejrFxcVBg2QgDodDs+7mQzgvKD09PUjg7pSHxdLU1MSBAwfIyclhxYsvvkh1dTUNDQ2GRKWlpZw8eZKqqqqoCNfp06cX5F4MDg6SnZ3NsWPHaGxspKamJqwVEE3UBjQ0NBQ0Ym3bto3m5uagdyopKQmq7KqqKsN+ZWWltu33+zWrKBqo+c7Ly2NwcDBkHtXtcAOLxWIhNzeXTz75hMHBQex2O1VVVTGztJxOJ++88w4HDx4E4C9/+QtlZWWGNBUVFdr5cAS6ls3NzQwNDUVV3KxWK1arleLiYoqLi7Xj4Z7p9/u1Ng9GV3EubDYbdrvdYCiMjY0xOjoa9GyYrms98bCaw6G5itXV1Zw8eRJAEy9VtKqrq8NaY0tBVlYWSUlJ2O12rly5QmFhYdi0qppfvnyZy5cvoygKDz30EIODgyQlJRliNbGgtLSUyclJsrOzQ5rW5eXl2rZa8U1NTTQ1NWG1WoNcs8BYR7RRFMXQYCsrK7XGHDhyKopCdnY2MG2yq3lub28PatA1NTWaqKtpYo3eEvN4PJw/fz5kOr1YDQ0NsX37dgC2bt3KmjVruHjxYlTzGejeKYqCzWZbsNUSyjrq6enRrLZQhsK777674Hvriba1deTIEdauXYvP56OpqYkVqlip4qVuh7LClhKr1YrFYmFsbAyAhIQEXnzxRe1cYMcOJFSniSWq6b1nzx4aGhrCulT6OENgQFwvbt3d3do91JhTS0tL1GJcavmpotTT00N2djZ+vx+YroPS0lLef//9oGtDBfYDGRgYiGv9OJ1Ofv3rX/PLX/4ybBq9WPX19bF582a2bt1KUVERCQkJtLa2xiq7wLTbGMoFg1mLN7DsVVdxbGwMv99vsI70bQ+mDYXExET27NnDxYsXKS8v16wwPaplp297DocDq9XK7t27+eCDD/B6vZol19PTE/XwQE1NjTa4ezye6eB8oHhFW7QA7rvvPm37448/1uIkegFISkqioqJC68ChXC09ejcL5p4diQb6zh7KanK5XDQ2NlJcXExjYyO7du0yiPOBAwdITk4mKyuL/v7+qM4qBmKz2fB4PBGnHxsbCzuzpLfQ7mZaW1s5ePAgW7duZXh4mISEBO655x5SU1MZHh42xMiijRru6O7u1oQBZkMSahxMP6milrPaxgOFSt/2rVYrq1ev5ssvv8Rms7Fp0yYtdjYfa394eJgf/vCH+Hw+LBZL2BnPaBO3WcUtW7bQ399PSkoKHo8Hh8OhVYQqmjdv3qS/v5+srCxcLpfmagWiBuxjKVILRZ19+/73vw/MWl0tLS38/e9/Z8OGDaSlpWm+fKxQy7WkpASYjb9EQmAHMgN9fX20tbVx8OBBioqK6OvrAyAzM5Pt27dH3U0MpKCgQBOn3NxczWrKzc0FoKurS0urt5LnQj+QZmRk4Pf78Xq9vPfee2zfvh2bzXZH0fH7/aSmpgbFYlWLTx+Pi2UsbAUYY1pAUMwrGoyPj9Pf309eXh4wrfqKotDS0mJI19vbS3FxcdhCzsnJYePGjVgsFkpKSmI6RRtIJJ1d7dyh3GE17tTS0hKXUUxPcnKy1tDvhM1mIz09HUVR7pogbn5+PufPnw9pRa5Zs4bW1lY+//xzfD4fqamptLW1cfv2bS2+FUs3MScnB4vFQldXF16vV7Ocbt68qU30BNaD+l7p6elUVVUFBdRhtj0mJiaSm5tLV1cXeXl5TE1N0dDQELQ0RxWhsbExQzvt7Ow0xMIC264a2ojlsqQVetHSC1W0xevDDz/EZrNp+4qiMDk5icvlMnR+dd1IRkZGyFm6jRs3av643W7XZhtj4Wa53W6DlaEoCmvXrjUs75jLCrFYLAaLS40x3bx5U2sc586di/p76FEnD9RGXVpaisPhMAiSPkCfk5NDSkoKIyMj2nl9/GwxweZIyM/PJz8/n2vXrhmOO51ObTFpRUWFdnzv3r2kpaVpFpYa56qurqawsJCTJ08yPj4eMzfRarVSVFREW1ubJk4OhwO73c69994bsi3bbDays7O5ffu2IRyiDnz6SZeBgQHGxsa4fv26wVDQTwyEcxVtNht+v1+bcQ7Hnj17Yh7aWBFKtPQxr1u3bkV1ZhGmF+FlZGQY3CO/368tNFUDx2rnUStobGyM119/3VDh+pXBsXJd9Pk5c+YMXq+XkpISqqqqDKv+AwOrfr+furo6TXQBPvnkEwoKCpiYmNAC5bFEzWN3dzc1NTWUlJSEHAzUwKzX68XhcIRcHxSJK7JYApdDAHOulv/BD35gEKbApQexdhNLS0sZHR3VBmx1wOjs7OTPf/6zVheq+NtsNjIyMpicnKSwsNBgac01YRVoKESCoih4PJ47Wt2xjiMfPnyYZcePH/9nPBagQrDS6zu2aq7qC00ViEiC7na7HY/HE7XRXj9RMFd+9O6fvlHpze2CggJDXtV7R3OKWV/WnZ2dfPzxx9jtdqxWa1DAVXUFWltb+da3vqVNS+vTBS6vgOCPakXCYlzNiooKHn30UW0dV0VFBT//+c9JSEjA6XTy4x//mN/85je8+eabPPjgg2FXz+vRW26REulHftRYlSpQQEgLS20PPp+PTz/9lAceeIDa2tqg9Vmh0M8Q6vuboihzTnQNDQ3xj3/8wzDRdKf+GW30yzni+llFQQjkbomRLQb5BtToI98OIQiC6RDhEgTBdIhwCYJgOkS4BEEwHSJcgiCYDhEuQRBMhwiXcFehfgmgWTF7/s3CXfXVzYLwr997mdv374p3NhbMl7cn8bc9g+X2RLyz8pVGLC7hriLWXwi51CxbtizeWfhaICvnBUEwHStG3fE1aTOzsujr7Y1rHgRBMBcr4m3arrBYxLwWBGFexD3GtXz5v8Q7C4IgmIwV8TZ2li9fTrzzIAiCuVjxzziH5pctg3jnQRAEcxH3GBcsCxvjutrzBeuzN8Q4P4Ig3O3EPcY1l3AuXx737AlfAToq8w3/53udcPchyiB8bcg74xQx+opgKuEqf7WVvl4XfXUnZg/mp3G2RuGFMih8chP1Net5bMmfvIYXajZxPKI2v4YXahTOPmmFsvXUR3wd7NuxkY7KTI6TyEsH8+koTY4wf8m8XZnPBzsSYXMmHZUbeWldZFfOlpmV4y8r1D+zJsJnLoJF1Nnx0nw6DqayT//OOjoq84P+9MfV7UiuuRNz1tf+0/yx10Vfbx0/jfDdhMiJ8mcVN1H+1HbuAwY/eo26K4u41f7T/KxklNezHuQX+uPOKW7o9yd9xHc56xQ3JmGdbn/AGdmVjeO3+ZVu3z05ZTh/vDSfQ+kzOwP95DWoi4enuH4LZn/D5TaDhkIJz6Uh4zMm3FNhUi4hi6izrskpWD277x73BaXJO2Ms8I7K/KBjodLr04UTOf195qyvC0f59oXpwfbluhP8olyfUlgs0bO41m3n8afymKi9yNy/yjYPRq8TWvumuHEtuBPGkxtDXrjmY96fS7g1RRc+BgN+x3Tfjo0cop+8M07yzjg5S0aQteEe98HoFPP+QbBJH714GYjpb9Auos48UzTOiHW0UAVKLe+wwhemvlTq+kejlMOvN9GzuG5c5NyrF4FNlEftIQDj/OTI+PSm8ypl9QGn89M4eywV1YifaOvi0G9nflKpbD31+2eH7+4L7fxEu34NL9RkslE7a7QSHntG4fH1MzuTwzz39BCXAPBy6mn1l2qGOHQkOMflr7bycgn8z/EHeeqC7sTlPvIuT282Njg5pZ1I5vBm+N//ntD2i9LBtno1+/DRiI8fval2rGF2nwl+ZljqZ8vs0vPtvK0ez0/j7GHocKeyc/0Uf7gwQd7+VJJ172ooA6b4wytXOOXUXa8rdwCu9lH2/Dh3rDNKebXtJb5LM08XHaVOd6bxo24aZ7Zn39mI3kqar/U1L8LWlxBtzPO1Nhu+QcrIp4ZGfEdmOs+NC+0cCuwcZeup3w/njsx01vw0zh7bxPFrVzjlnBYtLrTPdKo1vFCTql1a+OQmHnF3Ufa8V9v/9yc9s4K41KxbiY3btN0A1qXywfdW4fzoBrYdK8kFrSMvOatSyevu4hy5PL4/kXOvDPPIsUSygEv5aTxiG+a5I6pg61nDC/pyL1tP/W4fzz0/Hq2cGgh09+LKF9cZ3Z9OOcyv7QpzYgLhOsG7vU+wqfO/yJxnnKBwWzLJV/uCRQsoTFvJRFvfrIXh9NAxmcq6+4H7k9k4OcxzIa4DKzs3riR5VS71RbrDV1cCkQlX3VMPLqwRb86kYwecPdPNqXWpfLCQe8wLD7//rReegYm2Yd5mNY+op5xT3FiVybM1yUZLKxyrZgQvouc28FRRw52TzZMltbYi5cJRvs10oP5nTT/i208t/Xt9HTGBcP2KR7N+BSfq6Ks7MW/xig5TkXXWpeLGFG7WceibNzhxZnjawkpZie3WFF0xykIwqrs3Mxu5Su9qj3PpaiaP71eo3w9qeb095/2ih7oMIlQQPpC53MwFsf80fzwB/5GVIxbXEmKe5RBfXGf03vR5xcsufTbBxPrUkMsRLg1NkVyUOjsNX5bKzlUeLtUzHVRflczOfJjumPpYl5cB90p2Hk6jcIGvMr2so5VX90d6xQRtA+Du98y4hYm89M1Vuv1In+ni3RN3Tjs/pmN6z7VNsS7NOn1IcyPbKTvSTtmR+Yp8Ka+2uehrO73g+KhegFShCuc6qksg7hiIXwgbvkHKyICI1hITRYtrdikEADsqqNxxi8u1b/FRhFP1i8Y5xKELidQfU9g5c0gLztdf5bm0TTxbo/A4YLAKnEP8Z1syz85c132hiz/sztRu+/bzXaS/nMuzuriXMbC/9Jxq+IL7Dm6go3J63335C3Z/FLwUIBx1/aO8TAr3ZJQCS+CuBExsTE9QzLjKziF+71YM5RNrKzWUdRVOvKIawBeiwrIHMrPj+hHn3E2b6bpyOeS5vl4XmVk50zuqyR0wyyREynSskNdyeDTa3nZ+GmePJfL7I1c19/CxZxQeR51VjA6BghNOgO7kKoYSMlig63iijr5/+/QuCXF8dTCPqwiQ8k2+G7F7Jaj8tM5FX6xEC+D+ROMyCKyk26K/uDVQWMIJTSSLUQOPLdQCK89IWdB1wtyYx+JCXf+UAguYYRRii3GNF7o1XF8T9p/mj6ceJoX/4/WscuOnPYRFc1cLlyAIQijM5SoKgiAgwiUIggkR4RIEwXSIcAmCYDpEuARBMB0iXIIgmA4RLkEQTIcIlyAIpkOESxAE0yHCJQiC6RDhEgTBdIhwCYJgOkS4BEEwHSJcgiCYDhEuQRBMhwiXIAimQ4RLEATTIcIlCILpEOESBMF0iHAJgmA6RLgEQTAdIlyCIJgOES5BEEyHCJcgCKZDhEsQBNMhwiUIgukQ4RIEwXSIcAmCYDpEuARBMB0iXIIgmA4RLkEQTIcIlyAIpuP/Aba+eJdMpdCNAAAAAElFTkSuQmCC;" vertex="1" parent="1">
                    <mxGeometry x="400" y="260" width="302" height="82" as="geometry"/>
                </mxCell>
            </root>
        </mxGraphModel>
    </diagram>
</mxfile>